<svg xmlns="http://www.w3.org/2000/svg" xmlns:xlink="http://www.w3.org/1999/xlink" contentStyleType="text/css" data-diagram-type="DESCRIPTION" height="3239px" preserveAspectRatio="none" style="width:474px;height:3239px;background:#FFFFFF;" version="1.1" viewBox="0 0 474 3239" width="474px" zoomAndPan="magnify"><?plantuml 1.2026.5?><defs/><g><g class="title" data-source-line="2"><text fill="#000000" font-family="sans-serif" font-size="14" font-weight="700" lengthAdjust="spacing" textLength="211.5928" x="127.7036" y="24.5332">Casos de uso - Ingeniero de QA</text></g><!--cluster Sistema--><g class="cluster" data-qualified-name="Sistema" data-source-line="6" id="ent0002"><rect fill="none" height="3180" rx="2.5" ry="2.5" style="stroke:#181818;stroke-width:1;" width="308" x="152" y="45.6094"/><text fill="#000000" font-family="sans-serif" font-size="14" font-weight="700" lengthAdjust="spacing" textLength="53.6963" x="279.1519" y="62.1426">Sistema</text></g><!--entity CU01--><g class="entity" data-qualified-name="Sistema.CU01" data-source-line="7" id="ent0003"><ellipse cx="305.8945" cy="108.625" fill="#F1F1F1" rx="32.3945" ry="26.5156" style="stroke:#181818;stroke-width:0.5;"/><text fill="#000000" font-family="sans-serif" font-size="14" lengthAdjust="spacing" textLength="37.3447" x="287.2221" y="104.5728">Iniciar</text><text fill="#000000" font-family="sans-serif" font-size="14" lengthAdjust="spacing" textLength="40.4688" x="285.6601" y="122.1822">sesion</text></g><!--entity CU02--><g class="entity" data-qualified-name="Sistema.CU02" data-source-line="8" id="ent0004"><ellipse cx="305.7652" cy="197.4215" fill="#F1F1F1" rx="32.7652" ry="26.8122" style="stroke:#181818;stroke-width:0.5;"/><text fill="#000000" font-family="sans-serif" font-size="14" lengthAdjust="spacing" textLength="39.6689" x="285.9307" y="193.7759">Cerrar</text><text fill="#000000" font-family="sans-serif" font-size="14" lengthAdjust="spacing" textLength="40.4688" x="285.5308" y="211.3853">sesion</text></g><!--entity CU03--><g class="entity" data-qualified-name="Sistema.CU03" data-source-line="10" id="ent0005"><ellipse cx="305.9749" cy="285.5017" fill="#F1F1F1" rx="101.4749" ry="25.3923" style="stroke:#181818;stroke-width:0.5;"/><text fill="#000000" font-family="sans-serif" font-size="14" lengthAdjust="spacing" textLength="58.3584" x="276.7957" y="278.2244">Introducir</text><text fill="#000000" font-family="sans-serif" font-size="14" lengthAdjust="spacing" textLength="154.8818" x="228.534" y="295.8337">documentacion funcional</text></g><!--entity CU04--><g class="entity" data-qualified-name="Sistema.CU04" data-source-line="11" id="ent0006"><ellipse cx="306.2009" cy="371.6653" fill="#F1F1F1" rx="96.2009" ry="25.556" style="stroke:#181818;stroke-width:0.5;"/><text fill="#000000" font-family="sans-serif" font-size="14" lengthAdjust="spacing" textLength="145.5234" x="233.4392" y="371.6793">Asociar documentacion</text><text fill="#000000" font-family="sans-serif" font-size="14" lengthAdjust="spacing" textLength="65.3721" x="273.5149" y="389.2887">a proyecto</text></g><!--entity CU05--><g class="entity" data-qualified-name="Sistema.CU05" data-source-line="12" id="ent0007"><ellipse cx="306.0001" cy="462.6094" fill="#F1F1F1" rx="138.0001" ry="30" style="stroke:#181818;stroke-width:0.5;"/><text fill="#000000" font-family="sans-serif" font-size="14" lengthAdjust="spacing" textLength="251.3643" x="180.318" y="466.8617">Consultar referencias de documentacion</text><text fill="#000000" font-family="sans-serif" font-size="14" lengthAdjust="spacing" textLength="92.6201" x="259.69" y="484.4711">de un proyecto</text></g><!--entity CU06--><g class="entity" data-qualified-name="Sistema.CU06" data-source-line="13" id="ent0008"><ellipse cx="305.7829" cy="553.4691" fill="#F1F1F1" rx="63.2829" ry="25.3598" style="stroke:#181818;stroke-width:0.5;"/><text fill="#000000" font-family="sans-serif" font-size="14" lengthAdjust="spacing" textLength="34.2344" x="288.6657" y="546.1391">Listar</text><text fill="#000000" font-family="sans-serif" font-size="14" lengthAdjust="spacing" textLength="94.9512" x="258.3073" y="563.7485">documentacion</text></g><!--entity CU07--><g class="entity" data-qualified-name="Sistema.CU07" data-source-line="14" id="ent0009"><ellipse cx="305.795" cy="640.7155" fill="#F1F1F1" rx="65.295" ry="26.1061" style="stroke:#181818;stroke-width:0.5;"/><text fill="#000000" font-family="sans-serif" font-size="14" lengthAdjust="spacing" textLength="59.917" x="275.8365" y="634.5662">Consultar</text><text fill="#000000" font-family="sans-serif" font-size="14" lengthAdjust="spacing" textLength="94.9512" x="258.3194" y="652.1755">documentacion</text></g><!--entity CU08--><g class="entity" data-qualified-name="Sistema.CU08" data-source-line="15" id="ent0010"><ellipse cx="305.9559" cy="727.7752" fill="#F1F1F1" rx="65.4559" ry="26.1658" style="stroke:#181818;stroke-width:0.5;"/><text fill="#000000" font-family="sans-serif" font-size="14" lengthAdjust="spacing" textLength="61.4688" x="275.2215" y="721.7178">Actualizar</text><text fill="#000000" font-family="sans-serif" font-size="14" lengthAdjust="spacing" textLength="94.9512" x="258.4803" y="739.3272">documentacion</text></g><!--entity CU09--><g class="entity" data-qualified-name="Sistema.CU09" data-source-line="16" id="ent0011"><ellipse cx="305.9232" cy="814.3921" fill="#F1F1F1" rx="64.4232" ry="25.7827" style="stroke:#181818;stroke-width:0.5;"/><text fill="#000000" font-family="sans-serif" font-size="14" lengthAdjust="spacing" textLength="50.5654" x="280.6404" y="807.7383">Eliminar</text><text fill="#000000" font-family="sans-serif" font-size="14" lengthAdjust="spacing" textLength="94.9512" x="258.4476" y="825.3476">documentacion</text></g><!--entity CU10--><g class="entity" data-qualified-name="Sistema.CU10" data-source-line="18" id="ent0012"><ellipse cx="306.1447" cy="901.5842" fill="#F1F1F1" rx="55.6447" ry="25.4748" style="stroke:#181818;stroke-width:0.5;"/><text fill="#000000" font-family="sans-serif" font-size="14" lengthAdjust="spacing" textLength="34.2344" x="289.0275" y="894.4399">Listar</text><text fill="#000000" font-family="sans-serif" font-size="14" lengthAdjust="spacing" textLength="82.4961" x="264.8967" y="912.0493">casos de uso</text></g><!--entity CU11--><g class="entity" data-qualified-name="Sistema.CU11" data-source-line="19" id="ent0013"><ellipse cx="305.9738" cy="989.3885" fill="#F1F1F1" rx="53.9738" ry="26.7792" style="stroke:#181818;stroke-width:0.5;"/><text fill="#000000" font-family="sans-serif" font-size="14" lengthAdjust="spacing" textLength="59.917" x="276.0153" y="984.2591">Consultar</text><text fill="#000000" font-family="sans-serif" font-size="14" lengthAdjust="spacing" textLength="75.4961" x="268.2258" y="1001.8685">caso de uso</text></g><!--entity CU12--><g class="entity" data-qualified-name="Sistema.CU12" data-source-line="20" id="ent0014"><ellipse cx="305.9297" cy="1077.7017" fill="#F1F1F1" rx="51.4297" ry="25.5923" style="stroke:#181818;stroke-width:0.5;"/><text fill="#000000" font-family="sans-serif" font-size="14" lengthAdjust="spacing" textLength="35.0068" x="288.4263" y="1070.7459">Crear</text><text fill="#000000" font-family="sans-serif" font-size="14" lengthAdjust="spacing" textLength="75.4961" x="268.1816" y="1088.3553">caso de uso</text></g><!--entity CU13--><g class="entity" data-qualified-name="Sistema.CU13" data-source-line="21" id="ent0015"><ellipse cx="306.1839" cy="1165.4865" fill="#F1F1F1" rx="54.1839" ry="26.8772" style="stroke:#181818;stroke-width:0.5;"/><text fill="#000000" font-family="sans-serif" font-size="14" lengthAdjust="spacing" textLength="61.4688" x="275.4495" y="1160.5026">Actualizar</text><text fill="#000000" font-family="sans-serif" font-size="14" lengthAdjust="spacing" textLength="75.4961" x="268.4359" y="1178.112">caso de uso</text></g><!--entity CU14--><g class="entity" data-qualified-name="Sistema.CU14" data-source-line="22" id="ent0016"><ellipse cx="305.8403" cy="1254.3598" fill="#F1F1F1" rx="52.8403" ry="26.2504" style="stroke:#181818;stroke-width:0.5;"/><text fill="#000000" font-family="sans-serif" font-size="14" lengthAdjust="spacing" textLength="50.5654" x="280.5576" y="1248.4323">Eliminar</text><text fill="#000000" font-family="sans-serif" font-size="14" lengthAdjust="spacing" textLength="75.4961" x="268.0923" y="1266.0417">caso de uso</text></g><!--entity CU15--><g class="entity" data-qualified-name="Sistema.CU15" data-source-line="24" id="ent0017"><ellipse cx="305.8139" cy="1342.5717" fill="#F1F1F1" rx="68.3139" ry="26.4624" style="stroke:#181818;stroke-width:0.5;"/><text fill="#000000" font-family="sans-serif" font-size="14" lengthAdjust="spacing" textLength="98.041" x="256.7934" y="1341.1765">Listar requisitos</text><text fill="#000000" font-family="sans-serif" font-size="14" lengthAdjust="spacing" textLength="70.8271" x="270.4003" y="1358.7859">funcionales</text></g><!--entity CU16--><g class="entity" data-qualified-name="Sistema.CU16" data-source-line="25" id="ent0018"><ellipse cx="306.0185" cy="1429.7445" fill="#F1F1F1" rx="78.0185" ry="25.6352" style="stroke:#181818;stroke-width:0.5;"/><text fill="#000000" font-family="sans-serif" font-size="14" lengthAdjust="spacing" textLength="116.7236" x="247.6567" y="1429.6321">Consultar requisito</text><text fill="#000000" font-family="sans-serif" font-size="14" lengthAdjust="spacing" textLength="56.041" x="277.998" y="1447.2415">funcional</text></g><!--entity CU17--><g class="entity" data-qualified-name="Sistema.CU17" data-source-line="26" id="ent0019"><ellipse cx="306.0464" cy="1516.6426" fill="#F1F1F1" rx="63.0464" ry="26.0332" style="stroke:#181818;stroke-width:0.5;"/><text fill="#000000" font-family="sans-serif" font-size="14" lengthAdjust="spacing" textLength="91.8135" x="260.1397" y="1515.9048">Crear requisito</text><text fill="#000000" font-family="sans-serif" font-size="14" lengthAdjust="spacing" textLength="56.041" x="278.0259" y="1533.5142">funcional</text></g><!--entity CU18--><g class="entity" data-qualified-name="Sistema.CU18" data-source-line="27" id="ent0020"><ellipse cx="305.96" cy="1603.7279" fill="#F1F1F1" rx="78.96" ry="25.6185" style="stroke:#181818;stroke-width:0.5;"/><text fill="#000000" font-family="sans-serif" font-size="14" lengthAdjust="spacing" textLength="118.2754" x="246.8223" y="1603.6419">Actualizar requisito</text><text fill="#000000" font-family="sans-serif" font-size="14" lengthAdjust="spacing" textLength="56.041" x="277.9395" y="1621.2513">funcional</text></g><!--entity CU19--><g class="entity" data-qualified-name="Sistema.CU19" data-source-line="28" id="ent0021"><ellipse cx="305.863" cy="1690.3609" fill="#F1F1F1" rx="72.363" ry="25.7515" style="stroke:#181818;stroke-width:0.5;"/><text fill="#000000" font-family="sans-serif" font-size="14" lengthAdjust="spacing" textLength="107.3721" x="252.1769" y="1690.064">Eliminar requisito</text><text fill="#000000" font-family="sans-serif" font-size="14" lengthAdjust="spacing" textLength="56.041" x="277.8425" y="1707.6733">funcional</text></g><!--entity CU20--><g class="entity" data-qualified-name="Sistema.CU20" data-source-line="30" id="ent0022"><ellipse cx="305.883" cy="1777.7005" fill="#F1F1F1" rx="70.883" ry="25.5911" style="stroke:#181818;stroke-width:0.5;"/><text fill="#000000" font-family="sans-serif" font-size="14" lengthAdjust="spacing" textLength="105.8271" x="252.9694" y="1777.6582">Listar escenarios</text><text fill="#000000" font-family="sans-serif" font-size="14" lengthAdjust="spacing" textLength="49.0205" x="281.3727" y="1795.2676">Gherkin</text></g><!--entity CU21--><g class="entity" data-qualified-name="Sistema.CU21" data-source-line="31" id="ent0023"><ellipse cx="306.1047" cy="1863.777" fill="#F1F1F1" rx="67.1047" ry="25.6676" style="stroke:#181818;stroke-width:0.5;"/><text fill="#000000" font-family="sans-serif" font-size="14" lengthAdjust="spacing" textLength="99.5996" x="256.3049" y="1863.6129">Crear escenario</text><text fill="#000000" font-family="sans-serif" font-size="14" lengthAdjust="spacing" textLength="49.0205" x="281.5944" y="1881.2223">Gherkin</text></g><!--entity CU22--><g class="entity" data-qualified-name="Sistema.CU22" data-source-line="32" id="ent0024"><ellipse cx="305.7896" cy="1949.5372" fill="#F1F1F1" rx="82.2896" ry="25.4278" style="stroke:#181818;stroke-width:0.5;"/><text fill="#000000" font-family="sans-serif" font-size="14" lengthAdjust="spacing" textLength="124.5098" x="243.5347" y="1949.7571">Consultar escenario</text><text fill="#000000" font-family="sans-serif" font-size="14" lengthAdjust="spacing" textLength="49.0205" x="281.2793" y="1967.3665">Gherkin</text></g><!--entity CU23--><g class="entity" data-qualified-name="Sistema.CU23" data-source-line="33" id="ent0025"><ellipse cx="306.2408" cy="2035.5268" fill="#F1F1F1" rx="83.2408" ry="25.4175" style="stroke:#181818;stroke-width:0.5;"/><text fill="#000000" font-family="sans-serif" font-size="14" lengthAdjust="spacing" textLength="126.0615" x="243.21" y="2035.7635">Actualizar escenario</text><text fill="#000000" font-family="sans-serif" font-size="14" lengthAdjust="spacing" textLength="49.0205" x="281.7305" y="2053.3729">Gherkin</text></g><!--entity CU24--><g class="entity" data-qualified-name="Sistema.CU24" data-source-line="34" id="ent0026"><ellipse cx="306.0685" cy="2121.6088" fill="#F1F1F1" rx="76.5685" ry="25.4994" style="stroke:#181818;stroke-width:0.5;"/><text fill="#000000" font-family="sans-serif" font-size="14" lengthAdjust="spacing" textLength="115.1582" x="248.4894" y="2121.7134">Eliminar escenario</text><text fill="#000000" font-family="sans-serif" font-size="14" lengthAdjust="spacing" textLength="49.0205" x="281.5583" y="2139.3228">Gherkin</text></g><!--entity CU25--><g class="entity" data-qualified-name="Sistema.CU25" data-source-line="36" id="ent0027"><ellipse cx="305.7865" cy="2209.7541" fill="#F1F1F1" rx="79.2865" ry="27.1447" style="stroke:#181818;stroke-width:0.5;"/><text fill="#000000" font-family="sans-serif" font-size="14" lengthAdjust="spacing" textLength="111.2754" x="250.1488" y="2207.3445">Crear borrador de</text><text fill="#000000" font-family="sans-serif" font-size="14" lengthAdjust="spacing" textLength="96.5166" x="257.5282" y="2224.9538">caso de prueba</text></g><!--entity CU26--><g class="entity" data-qualified-name="Sistema.CU26" data-source-line="37" id="ent0028"><ellipse cx="306.1471" cy="2297.8143" fill="#F1F1F1" rx="46.6471" ry="25.705" style="stroke:#181818;stroke-width:0.5;"/><text fill="#000000" font-family="sans-serif" font-size="14" lengthAdjust="spacing" textLength="34.2344" x="289.0299" y="2291.0376">Listar</text><text fill="#000000" font-family="sans-serif" font-size="14" lengthAdjust="spacing" textLength="67.7031" x="272.2955" y="2308.647">borradores</text></g><!--entity CU27--><g class="entity" data-qualified-name="Sistema.CU27" data-source-line="38" id="ent0029"><ellipse cx="306.219" cy="2385.8376" fill="#F1F1F1" rx="44.219" ry="27.2282" style="stroke:#181818;stroke-width:0.5;"/><text fill="#000000" font-family="sans-serif" font-size="14" lengthAdjust="spacing" textLength="59.917" x="276.2605" y="2383.3062">Consultar</text><text fill="#000000" font-family="sans-serif" font-size="14" lengthAdjust="spacing" textLength="52.917" x="279.7605" y="2400.9155">borrador</text></g><!--entity CU28--><g class="entity" data-qualified-name="Sistema.CU28" data-source-line="39" id="ent0030"><ellipse cx="305.9575" cy="2473.7422" fill="#F1F1F1" rx="69.4575" ry="26.1328" style="stroke:#181818;stroke-width:0.5;"/><text fill="#000000" font-family="sans-serif" font-size="14" lengthAdjust="spacing" textLength="101.1787" x="255.3681" y="2472.8503">Anadir feedback</text><text fill="#000000" font-family="sans-serif" font-size="14" lengthAdjust="spacing" textLength="64.5928" x="273.6611" y="2490.4597">a borrador</text></g><!--entity CU29--><g class="entity" data-qualified-name="Sistema.CU29" data-source-line="40" id="ent0031"><ellipse cx="306.219" cy="2561.8376" fill="#F1F1F1" rx="44.219" ry="27.2282" style="stroke:#181818;stroke-width:0.5;"/><text fill="#000000" font-family="sans-serif" font-size="14" lengthAdjust="spacing" textLength="59.917" x="276.2605" y="2559.3062">Rechazar</text><text fill="#000000" font-family="sans-serif" font-size="14" lengthAdjust="spacing" textLength="52.917" x="279.7605" y="2576.9155">borrador</text></g><!--entity CU30--><g class="entity" data-qualified-name="Sistema.CU30" data-source-line="41" id="ent0032"><ellipse cx="305.9446" cy="2650.3889" fill="#F1F1F1" rx="104.9446" ry="26.7795" style="stroke:#181818;stroke-width:0.5;"/><text fill="#000000" font-family="sans-serif" font-size="14" lengthAdjust="spacing" textLength="150.9854" x="230.452" y="2648.5178">Publicar caso de prueba</text><text fill="#000000" font-family="sans-serif" font-size="14" lengthAdjust="spacing" textLength="119.8408" x="246.0242" y="2666.1272">a partir de borrador</text></g><!--entity CU31--><g class="entity" data-qualified-name="Sistema.CU31" data-source-line="43" id="ent0033"><ellipse cx="306.0278" cy="2739.7138" fill="#F1F1F1" rx="52.0278" ry="26.6045" style="stroke:#181818;stroke-width:0.5;"/><text fill="#000000" font-family="sans-serif" font-size="14" lengthAdjust="spacing" textLength="73.1514" x="269.4522" y="2738.1044">Seleccionar</text><text fill="#000000" font-family="sans-serif" font-size="14" lengthAdjust="spacing" textLength="55.2549" x="278.4004" y="2755.7138">sesiones</text></g><!--entity CU32--><g class="entity" data-qualified-name="Sistema.CU32" data-source-line="44" id="ent0034"><ellipse cx="305.7904" cy="2827.3707" fill="#F1F1F1" rx="52.7904" ry="25.7613" style="stroke:#181818;stroke-width:0.5;"/><text fill="#000000" font-family="sans-serif" font-size="14" lengthAdjust="spacing" textLength="77.041" x="267.2699" y="2827.0583">Crear nueva</text><text fill="#000000" font-family="sans-serif" font-size="14" lengthAdjust="spacing" textLength="40.4688" x="285.556" y="2844.6677">sesion</text></g><!--entity CU33--><g class="entity" data-qualified-name="Sistema.CU33" data-source-line="45" id="ent0035"><ellipse cx="306.1863" cy="2915.4201" fill="#F1F1F1" rx="37.1863" ry="26.8107" style="stroke:#181818;stroke-width:0.5;"/><text fill="#000000" font-family="sans-serif" font-size="14" lengthAdjust="spacing" textLength="50.5654" x="280.9036" y="2913.5026">Eliminar</text><text fill="#000000" font-family="sans-serif" font-size="14" lengthAdjust="spacing" textLength="40.4688" x="285.9519" y="2931.112">sesion</text></g><!--entity CU34--><g class="entity" data-qualified-name="Sistema.CU34" data-source-line="46" id="ent0036"><ellipse cx="306.1247" cy="3004.3954" fill="#F1F1F1" rx="46.6247" ry="26.7861" style="stroke:#181818;stroke-width:0.5;"/><text fill="#000000" font-family="sans-serif" font-size="14" lengthAdjust="spacing" textLength="51.3584" x="280.4455" y="2999.2763">Guardar</text><text fill="#000000" font-family="sans-serif" font-size="14" lengthAdjust="spacing" textLength="64.5928" x="273.8283" y="3016.8856">resultados</text></g><!--entity CU35--><g class="entity" data-qualified-name="Sistema.CU35" data-source-line="47" id="ent0037"><ellipse cx="305.9566" cy="3093.6472" fill="#F1F1F1" rx="40.9566" ry="26.5379" style="stroke:#181818;stroke-width:0.5;"/><text fill="#000000" font-family="sans-serif" font-size="14" lengthAdjust="spacing" textLength="56.793" x="277.5601" y="3092.138">Registrar</text><text fill="#000000" font-family="sans-serif" font-size="14" lengthAdjust="spacing" textLength="42.0342" x="284.9395" y="3109.7474">cuenta</text></g><!--entity CU36--><g class="entity" data-qualified-name="Sistema.CU36" data-source-line="48" id="ent0038"><ellipse cx="306.1016" cy="3182.5175" fill="#F1F1F1" rx="79.6016" ry="26.9081" style="stroke:#181818;stroke-width:0.5;"/><text fill="#000000" font-family="sans-serif" font-size="14" lengthAdjust="spacing" textLength="92.5928" x="259.8052" y="3177.5793">Crear traspaso</text><text fill="#000000" font-family="sans-serif" font-size="14" lengthAdjust="spacing" textLength="112.8408" x="249.6812" y="3195.1887">al flujo automatico</text></g><!--entity QA--><g class="entity" data-qualified-name="QA" data-source-line="4" id="ent0001"><ellipse cx="56.979" cy="1617.1094" fill="#F1F1F1" rx="8" ry="8" style="stroke:#181818;stroke-width:0.5;"/><path d="M56.979,1625.1094 L56.979,1652.1094 M43.979,1633.1094 L69.979,1633.1094 M56.979,1652.1094 L43.979,1667.1094 M56.979,1652.1094 L69.979,1667.1094" fill="none" style="stroke:#181818;stroke-width:0.5;"/><text fill="#000000" font-family="sans-serif" font-size="14" lengthAdjust="spacing" textLength="101.958" x="6" y="1683.1426">Ingeniero de QA</text></g><!--link QA to CU01--><g class="link" data-entity-1="ent0001" data-entity-2="ent0003" data-link-type="dependency" data-source-line="51" id="lnk39"><path d="M58.97,1608.5494 C64.82,1378.7394 96.81,210.8794 144,152.6094 C175.09,114.2194 231.1901,107.4815 268.5201,107.2415" fill="none" id="QA-to-CU01" style="stroke:#181818;stroke-width:1;"/><polygon fill="#181818" points="273.52,107.2094,264.4945,103.2673,268.5201,107.2415,264.5459,111.2672,273.52,107.2094" style="stroke:#181818;stroke-width:1;stroke-linejoin:miter;stroke-miterlimit:10;"/></g><!--link QA to CU02--><g class="link" data-entity-1="ent0001" data-entity-2="ent0004" data-link-type="dependency" data-source-line="52" id="lnk40"><path d="M57.74,1608.3594 C56.64,1392.0894 55.96,351.5394 144,242.6094 C174.92,204.3494 230.4806,197.1069 267.8706,196.5269" fill="none" id="QA-to-CU02" style="stroke:#181818;stroke-width:1;"/><polygon fill="#181818" points="272.87,196.4494,263.809,192.5894,267.8706,196.5269,263.9331,200.5885,272.87,196.4494" style="stroke:#181818;stroke-width:1;stroke-linejoin:miter;stroke-miterlimit:10;"/></g><!--link QA to CU03--><g class="link" data-entity-1="ent0001" data-entity-2="ent0005" data-link-type="dependency" data-source-line="53" id="lnk41"><path d="M57.88,1608.3794 C57.62,1400.1594 60.86,429.8694 144,328.6094 C159.79,309.3794 178.3057,299.4958 202.3557,293.1458" fill="none" id="QA-to-CU03" style="stroke:#181818;stroke-width:1;"/><polygon fill="#181818" points="207.19,291.8694,197.4671,290.2995,202.3557,293.1458,199.5093,298.0344,207.19,291.8694" style="stroke:#181818;stroke-width:1;stroke-linejoin:miter;stroke-miterlimit:10;"/></g><!--link QA to CU04--><g class="link" data-entity-1="ent0001" data-entity-2="ent0006" data-link-type="dependency" data-source-line="54" id="lnk42"><path d="M58.07,1608.3394 C58.8,1408.3294 66.38,508.7094 144,414.6094 C160.84,394.1894 181.3561,384.028 207.0061,377.918" fill="none" id="QA-to-CU04" style="stroke:#181818;stroke-width:1;"/><polygon fill="#181818" points="211.87,376.7594,202.1881,374.9538,207.0061,377.918,204.0419,382.736,211.87,376.7594" style="stroke:#181818;stroke-width:1;stroke-linejoin:miter;stroke-miterlimit:10;"/></g><!--link QA to CU05--><g class="link" data-entity-1="ent0001" data-entity-2="ent0007" data-link-type="dependency" data-source-line="55" id="lnk43"><path d="M58.37,1608.3294 C60.51,1418.0594 73.78,597.7494 144,510.6094 C155.71,496.0694 167.0171,487.7383 184.3071,480.5083" fill="none" id="QA-to-CU05" style="stroke:#181818;stroke-width:1;"/><polygon fill="#181818" points="188.92,478.5794,179.0736,478.3611,184.3071,480.5083,182.1599,485.7418,188.92,478.5794" style="stroke:#181818;stroke-width:1;stroke-linejoin:miter;stroke-miterlimit:10;"/></g><!--link QA to CU06--><g class="link" data-entity-1="ent0001" data-entity-2="ent0008" data-link-type="dependency" data-source-line="56" id="lnk44"><path d="M58.57,1608.5894 C61.58,1427.6294 78,675.6594 144,596.6094 C167.74,568.1794 203.0179,557.9569 237.3279,554.3169" fill="none" id="QA-to-CU06" style="stroke:#181818;stroke-width:1;"/><polygon fill="#181818" points="242.3,553.7894,232.9282,550.7612,237.3279,554.3169,233.7722,558.7165,242.3,553.7894" style="stroke:#181818;stroke-width:1;stroke-linejoin:miter;stroke-miterlimit:10;"/></g><!--link QA to CU07--><g class="link" data-entity-1="ent0001" data-entity-2="ent0009" data-link-type="dependency" data-source-line="57" id="lnk45"><path d="M58.88,1608.4194 C63.1,1436.6194 83.56,755.4494 144,683.6094 C167.37,655.8294 201.5524,645.5175 235.3924,641.6475" fill="none" id="QA-to-CU07" style="stroke:#181818;stroke-width:1;"/><polygon fill="#181818" points="240.36,641.0794,230.9638,638.1279,235.3924,641.6475,231.8728,646.0761,240.36,641.0794" style="stroke:#181818;stroke-width:1;stroke-linejoin:miter;stroke-miterlimit:10;"/></g><!--link QA to CU08--><g class="link" data-entity-1="ent0001" data-entity-2="ent0010" data-link-type="dependency" data-source-line="58" id="lnk46"><path d="M59.25,1608.4594 C64.76,1446.6294 89.09,835.3094 144,770.6094 C167.5,742.9294 201.6828,732.6209 235.4928,728.7309" fill="none" id="QA-to-CU08" style="stroke:#181818;stroke-width:1;"/><polygon fill="#181818" points="240.46,728.1594,231.0618,725.2143,235.4928,728.7309,231.9762,733.1619,240.46,728.1594" style="stroke:#181818;stroke-width:1;stroke-linejoin:miter;stroke-miterlimit:10;"/></g><!--link QA to CU09--><g class="link" data-entity-1="ent0001" data-entity-2="ent0011" data-link-type="dependency" data-source-line="59" id="lnk47"><path d="M59.72,1608.3494 C66.69,1456.9094 94.84,916.2294 144,858.6094 C167.79,830.7194 202.4153,820.2427 236.3853,816.1827" fill="none" id="QA-to-CU09" style="stroke:#181818;stroke-width:1;"/><polygon fill="#181818" points="241.35,815.5894,231.9389,812.6857,236.3853,816.1827,232.8883,820.6292,241.35,815.5894" style="stroke:#181818;stroke-width:1;stroke-linejoin:miter;stroke-miterlimit:10;"/></g><!--link QA to CU10--><g class="link" data-entity-1="ent0001" data-entity-2="ent0012" data-link-type="dependency" data-source-line="60" id="lnk48"><path d="M60.24,1608.5994 C68.65,1468.3194 100.08,995.1194 144,944.6094 C170.1,914.5894 209.6275,904.8376 245.2475,901.8476" fill="none" id="QA-to-CU10" style="stroke:#181818;stroke-width:1;"/><polygon fill="#181818" points="250.23,901.4294,240.927,898.1962,245.2475,901.8476,241.5961,906.1682,250.23,901.4294" style="stroke:#181818;stroke-width:1;stroke-linejoin:miter;stroke-miterlimit:10;"/></g><!--link QA to CU11--><g class="link" data-entity-1="ent0001" data-entity-2="ent0013" data-link-type="dependency" data-source-line="61" id="lnk49"><path d="M58.09,1608.3994 C59.17,1487.0494 68.72,1120.6394 144,1034.6094 C170.66,1004.1394 211.0919,993.9865 246.9019,990.6265" fill="none" id="QA-to-CU11" style="stroke:#181818;stroke-width:1;"/><polygon fill="#181818" points="251.88,990.1594,242.5457,987.0176,246.9019,990.6265,243.293,994.9826,251.88,990.1594" style="stroke:#181818;stroke-width:1;stroke-linejoin:miter;stroke-miterlimit:10;"/></g><!--link QA to CU12--><g class="link" data-entity-1="ent0001" data-entity-2="ent0014" data-link-type="dependency" data-source-line="62" id="lnk50"><path d="M59.04,1608.4994 C62.77,1498.9694 78.9,1192.5094 144,1120.6094 C171.67,1090.0494 213.4344,1080.5686 249.4544,1077.8286" fill="none" id="QA-to-CU12" style="stroke:#181818;stroke-width:1;"/><polygon fill="#181818" points="254.44,1077.4494,245.1625,1074.1435,249.4544,1077.8286,245.7693,1082.1205,254.44,1077.4494" style="stroke:#181818;stroke-width:1;stroke-linejoin:miter;stroke-miterlimit:10;"/></g><!--link QA to CU13--><g class="link" data-entity-1="ent0001" data-entity-2="ent0015" data-link-type="dependency" data-source-line="63" id="lnk51"><path d="M60.55,1608.3594 C67.58,1512.2294 90.39,1268.5894 144,1210.6094 C171.39,1180.9894 211.5256,1170.7751 247.0356,1167.1651" fill="none" id="QA-to-CU13" style="stroke:#181818;stroke-width:1;"/><polygon fill="#181818" points="252.01,1166.6594,242.6516,1163.5901,247.0356,1167.1651,243.4607,1171.5491,252.01,1166.6594" style="stroke:#181818;stroke-width:1;stroke-linejoin:miter;stroke-miterlimit:10;"/></g><!--link QA to CU14--><g class="link" data-entity-1="ent0001" data-entity-2="ent0016" data-link-type="dependency" data-source-line="64" id="lnk52"><path d="M62.64,1608.4894 C73.08,1526.9594 100.92,1342.7794 144,1298.6094 C172.22,1269.6694 212.5147,1259.6961 247.8747,1256.1661" fill="none" id="QA-to-CU14" style="stroke:#181818;stroke-width:1;"/><polygon fill="#181818" points="252.85,1255.6694,243.4972,1252.5832,247.8747,1256.1661,244.2919,1260.5436,252.85,1255.6694" style="stroke:#181818;stroke-width:1;stroke-linejoin:miter;stroke-miterlimit:10;"/></g><!--link QA to CU15--><g class="link" data-entity-1="ent0001" data-entity-2="ent0017" data-link-type="dependency" data-source-line="65" id="lnk53"><path d="M59.74,1608.3694 C64.42,1551.3394 81.56,1445.9094 144,1386.6094 C169.11,1362.7594 200.9228,1352.3796 232.9728,1347.2496" fill="none" id="QA-to-CU15" style="stroke:#181818;stroke-width:1;"/><polygon fill="#181818" points="237.91,1346.4594,228.3909,1343.9321,232.9728,1347.2496,229.6553,1351.8316,237.91,1346.4594" style="stroke:#181818;stroke-width:1;stroke-linejoin:miter;stroke-miterlimit:10;"/></g><!--link QA to CU16--><g class="link" data-entity-1="ent0001" data-entity-2="ent0018" data-link-type="dependency" data-source-line="66" id="lnk54"><path d="M67.02,1608.5994 C78.29,1568.6194 101.49,1507.5194 144,1472.6094 C168.26,1452.6894 195.9731,1442.8898 225.5031,1437.1098" fill="none" id="QA-to-CU16" style="stroke:#181818;stroke-width:1;"/><polygon fill="#181818" points="230.41,1436.1494,220.8092,1433.9527,225.5031,1437.1098,222.346,1441.8037,230.41,1436.1494" style="stroke:#181818;stroke-width:1;stroke-linejoin:miter;stroke-miterlimit:10;"/></g><!--link QA to CU17--><g class="link" data-entity-1="ent0001" data-entity-2="ent0019" data-link-type="dependency" data-source-line="67" id="lnk55"><path d="M88.73,1608.2794 C103.76,1591.4194 123.1,1572.8294 144,1560.6094 C175.27,1542.3294 209.4877,1532.3929 241.3377,1526.0029" fill="none" id="QA-to-CU17" style="stroke:#181818;stroke-width:1;"/><polygon fill="#181818" points="246.24,1525.0194,236.629,1522.8679,241.3377,1526.0029,238.2027,1530.7116,246.24,1525.0194" style="stroke:#181818;stroke-width:1;stroke-linejoin:miter;stroke-miterlimit:10;"/></g><!--link QA to CU18--><g class="link" data-entity-1="ent0001" data-entity-2="ent0020" data-link-type="dependency" data-source-line="68" id="lnk56"><path d="M108.28,1638.6494 C145.24,1632.0694 190.9575,1623.9261 231.6075,1616.6861" fill="none" id="QA-to-CU18" style="stroke:#181818;stroke-width:1;"/><polygon fill="#181818" points="236.53,1615.8094,226.9681,1613.4495,231.6075,1616.6861,228.3708,1621.3255,236.53,1615.8094" style="stroke:#181818;stroke-width:1;stroke-linejoin:miter;stroke-miterlimit:10;"/></g><!--link QA to CU19--><g class="link" data-entity-1="ent0001" data-entity-2="ent0021" data-link-type="dependency" data-source-line="69" id="lnk57"><path d="M108.28,1656.3594 C146.37,1662.9894 194.0641,1671.2918 235.3041,1678.4718" fill="none" id="QA-to-CU19" style="stroke:#181818;stroke-width:1;"/><polygon fill="#181818" points="240.23,1679.3294,232.0495,1673.845,235.3041,1678.4718,230.6773,1681.7264,240.23,1679.3294" style="stroke:#181818;stroke-width:1;stroke-linejoin:miter;stroke-miterlimit:10;"/></g><!--link QA to CU20--><g class="link" data-entity-1="ent0001" data-entity-2="ent0022" data-link-type="dependency" data-source-line="70" id="lnk58"><path d="M89.21,1686.9194 C104.19,1703.4694 123.37,1721.6294 144,1733.6094 C173.32,1750.6294 204.5807,1760.2431 235.1907,1766.7931" fill="none" id="QA-to-CU20" style="stroke:#181818;stroke-width:1;"/><polygon fill="#181818" points="240.08,1767.8394,232.1162,1762.0447,235.1907,1766.7931,230.4422,1769.8676,240.08,1767.8394" style="stroke:#181818;stroke-width:1;stroke-linejoin:miter;stroke-miterlimit:10;"/></g><!--link QA to CU21--><g class="link" data-entity-1="ent0001" data-entity-2="ent0023" data-link-type="dependency" data-source-line="71" id="lnk59"><path d="M67.36,1686.9094 C78.81,1726.4494 102.06,1786.3294 144,1820.6094 C170.99,1842.6694 203.3172,1852.6721 235.1872,1857.9521" fill="none" id="QA-to-CU21" style="stroke:#181818;stroke-width:1;"/><polygon fill="#181818" points="240.12,1858.7694,231.8948,1853.3522,235.1872,1857.9521,230.5872,1861.2446,240.12,1858.7694" style="stroke:#181818;stroke-width:1;stroke-linejoin:miter;stroke-miterlimit:10;"/></g><!--link QA to CU22--><g class="link" data-entity-1="ent0001" data-entity-2="ent0024" data-link-type="dependency" data-source-line="72" id="lnk60"><path d="M59.83,1687.0694 C64.63,1743.8394 81.93,1848.1294 144,1906.6094 C165.9,1927.2394 191.6774,1937.2275 220.3874,1942.9775" fill="none" id="QA-to-CU22" style="stroke:#181818;stroke-width:1;"/><polygon fill="#181818" points="225.29,1943.9594,217.2508,1938.2699,220.3874,1942.9775,215.6797,1946.1141,225.29,1943.9594" style="stroke:#181818;stroke-width:1;stroke-linejoin:miter;stroke-miterlimit:10;"/></g><!--link QA to CU23--><g class="link" data-entity-1="ent0001" data-entity-2="ent0025" data-link-type="dependency" data-source-line="73" id="lnk61"><path d="M62.72,1686.6094 C73.28,1767.4094 101.26,1949.1494 144,1992.6094 C165.1,2014.0594 190.7131,2024.2191 219.5331,2029.8591" fill="none" id="QA-to-CU23" style="stroke:#181818;stroke-width:1;"/><polygon fill="#181818" points="224.44,2030.8194,216.3758,2025.1653,219.5331,2029.8591,214.8393,2033.0164,224.44,2030.8194" style="stroke:#181818;stroke-width:1;stroke-linejoin:miter;stroke-miterlimit:10;"/></g><!--link QA to CU24--><g class="link" data-entity-1="ent0001" data-entity-2="ent0026" data-link-type="dependency" data-source-line="74" id="lnk62"><path d="M60.61,1686.7094 C67.76,1781.8594 90.76,2021.8394 144,2078.6094 C165.97,2102.0294 194.2301,2112.3948 224.7701,2117.5648" fill="none" id="QA-to-CU24" style="stroke:#181818;stroke-width:1;"/><polygon fill="#181818" points="229.7,2118.3994,221.4939,2112.9533,224.7701,2117.5648,220.1586,2120.8411,229.7,2118.3994" style="stroke:#181818;stroke-width:1;stroke-linejoin:miter;stroke-miterlimit:10;"/></g><!--link QA to CU25--><g class="link" data-entity-1="ent0001" data-entity-2="ent0027" data-link-type="dependency" data-source-line="75" id="lnk63"><path d="M59.22,1686.7194 C63.4,1794.7594 80.56,2093.9394 144,2164.6094 C165.04,2188.0394 192.2462,2198.7752 222.2862,2204.4252" fill="none" id="QA-to-CU25" style="stroke:#181818;stroke-width:1;"/><polygon fill="#181818" points="227.2,2205.3494,219.0945,2199.7547,222.2862,2204.4252,217.6157,2207.6169,227.2,2205.3494" style="stroke:#181818;stroke-width:1;stroke-linejoin:miter;stroke-miterlimit:10;"/></g><!--link QA to CU26--><g class="link" data-entity-1="ent0001" data-entity-2="ent0028" data-link-type="dependency" data-source-line="76" id="lnk64"><path d="M58.14,1686.8194 C59.37,1807.2694 69.34,2168.9094 144,2253.6094 C172.65,2286.1094 217.7499,2295.3341 254.4699,2297.6541" fill="none" id="QA-to-CU26" style="stroke:#181818;stroke-width:1;"/><polygon fill="#181818" points="259.46,2297.9694,250.7301,2293.4098,254.4699,2297.6541,250.2257,2301.3939,259.46,2297.9694" style="stroke:#181818;stroke-width:1;stroke-linejoin:miter;stroke-miterlimit:10;"/></g><!--link QA to CU27--><g class="link" data-entity-1="ent0001" data-entity-2="ent0029" data-link-type="dependency" data-source-line="77" id="lnk65"><path d="M57.38,1686.7194 C56.09,1818.2094 58.77,2241.6194 144,2340.6094 C172.97,2374.2594 219.8288,2383.4628 256.8588,2385.6628" fill="none" id="QA-to-CU27" style="stroke:#181818;stroke-width:1;"/><polygon fill="#181818" points="261.85,2385.9594,253.1031,2381.4327,256.8588,2385.6628,252.6286,2389.4186,261.85,2385.9594" style="stroke:#181818;stroke-width:1;stroke-linejoin:miter;stroke-miterlimit:10;"/></g><!--link QA to CU28--><g class="link" data-entity-1="ent0001" data-entity-2="ent0030" data-link-type="dependency" data-source-line="78" id="lnk66"><path d="M59.75,1686.7794 C66.83,1837.2394 95.27,2372.5494 144,2429.6094 C166.67,2456.1594 198.717,2466.7857 231.537,2471.3157" fill="none" id="QA-to-CU28" style="stroke:#181818;stroke-width:1;"/><polygon fill="#181818" points="236.49,2471.9994,228.1214,2466.8064,231.537,2471.3157,227.0276,2474.7312,236.49,2471.9994" style="stroke:#181818;stroke-width:1;stroke-linejoin:miter;stroke-miterlimit:10;"/></g><!--link QA to CU29--><g class="link" data-entity-1="ent0001" data-entity-2="ent0031" data-link-type="dependency" data-source-line="79" id="lnk67"><path d="M59.3,1686.6594 C65.01,1847.3594 89.96,2452.2394 144,2516.6094 C172.55,2550.6194 219.4878,2559.77 256.6578,2561.85" fill="none" id="QA-to-CU29" style="stroke:#181818;stroke-width:1;"/><polygon fill="#181818" points="261.65,2562.1294,252.8875,2557.6328,256.6578,2561.85,252.4406,2565.6203,261.65,2562.1294" style="stroke:#181818;stroke-width:1;stroke-linejoin:miter;stroke-miterlimit:10;"/></g><!--link QA to CU30--><g class="link" data-entity-1="ent0001" data-entity-2="ent0032" data-link-type="dependency" data-source-line="80" id="lnk68"><path d="M58.93,1686.8294 C63.32,1857.9594 84.36,2533.9194 144,2605.6094 C159.59,2624.3494 177.4728,2634.2644 200.9328,2640.9744" fill="none" id="QA-to-CU30" style="stroke:#181818;stroke-width:1;"/><polygon fill="#181818" points="205.74,2642.3494,198.1869,2636.0287,200.9328,2640.9744,195.987,2643.7202,205.74,2642.3494" style="stroke:#181818;stroke-width:1;stroke-linejoin:miter;stroke-miterlimit:10;"/></g><!--link QA to CU31--><g class="link" data-entity-1="ent0001" data-entity-2="ent0033" data-link-type="dependency" data-source-line="81" id="lnk69"><path d="M58.61,1686.7694 C61.77,1867.4994 78.73,2615.5394 144,2694.6094 C170.33,2726.4994 212.2457,2736.4339 248.6657,2739.3239" fill="none" id="QA-to-CU31" style="stroke:#181818;stroke-width:1;"/><polygon fill="#181818" points="253.65,2739.7194,244.9946,2735.02,248.6657,2739.3239,244.3618,2742.9949,253.65,2739.7194" style="stroke:#181818;stroke-width:1;stroke-linejoin:miter;stroke-miterlimit:10;"/></g><!--link QA to CU32--><g class="link" data-entity-1="ent0001" data-entity-2="ent0034" data-link-type="dependency" data-source-line="82" id="lnk70"><path d="M58.33,1686.8894 C60.29,1877.1494 72.85,2697.3594 144,2783.6094 C170.09,2815.2394 211.544,2824.966 247.864,2827.686" fill="none" id="QA-to-CU32" style="stroke:#181818;stroke-width:1;"/><polygon fill="#181818" points="252.85,2828.0594,244.1739,2823.3984,247.864,2827.686,243.5764,2831.3761,252.85,2828.0594" style="stroke:#181818;stroke-width:1;stroke-linejoin:miter;stroke-miterlimit:10;"/></g><!--link QA to CU33--><g class="link" data-entity-1="ent0001" data-entity-2="ent0035" data-link-type="dependency" data-source-line="83" id="lnk71"><path d="M58.12,1686.8694 C59.06,1885.8394 67.57,2776.8994 144,2870.6094 C173.99,2907.3794 226.3521,2915.3942 263.8821,2916.4842" fill="none" id="QA-to-CU33" style="stroke:#181818;stroke-width:1;"/><polygon fill="#181818" points="268.88,2916.6294,259.9999,2912.3698,263.8821,2916.4842,259.7677,2920.3664,268.88,2916.6294" style="stroke:#181818;stroke-width:1;stroke-linejoin:miter;stroke-miterlimit:10;"/></g><!--link QA to CU34--><g class="link" data-entity-1="ent0001" data-entity-2="ent0036" data-link-type="dependency" data-source-line="84" id="lnk72"><path d="M57.92,1686.6094 C57.83,1893.6494 61.86,2858.4194 144,2959.6094 C171.44,2993.4094 217.0087,3002.7552 254.1687,3004.9452" fill="none" id="QA-to-CU34" style="stroke:#181818;stroke-width:1;"/><polygon fill="#181818" points="259.16,3005.2394,250.4109,3000.7168,254.1687,3004.9452,249.9403,3008.703,259.16,3005.2394" style="stroke:#181818;stroke-width:1;stroke-linejoin:miter;stroke-miterlimit:10;"/></g><!--link QA to CU35--><g class="link" data-entity-1="ent0001" data-entity-2="ent0037" data-link-type="dependency" data-source-line="85" id="lnk73"><path d="M57.74,1686.7494 C56.69,1902.3994 56.2,2939.9894 144,3048.6094 C172.83,3084.2694 222.4039,3092.8612 259.9639,3094.3512" fill="none" id="QA-to-CU35" style="stroke:#181818;stroke-width:1;"/><polygon fill="#181818" points="264.96,3094.5494,256.1256,3090.1958,259.9639,3094.3512,255.8085,3098.1895,264.96,3094.5494" style="stroke:#181818;stroke-width:1;stroke-linejoin:miter;stroke-miterlimit:10;"/></g><!--link QA to CU36--><g class="link" data-entity-1="ent0001" data-entity-2="ent0038" data-link-type="dependency" data-source-line="86" id="lnk74"><path d="M58.99,1686.9094 C64.92,1916.8194 97.15,3079.4294 144,3137.6094 C163.93,3162.3594 191.3469,3173.2956 221.8269,3178.7056" fill="none" id="QA-to-CU36" style="stroke:#181818;stroke-width:1;"/><polygon fill="#181818" points="226.75,3179.5794,218.5876,3174.0681,221.8269,3178.7056,217.1895,3181.945,226.75,3179.5794" style="stroke:#181818;stroke-width:1;stroke-linejoin:miter;stroke-miterlimit:10;"/></g><?plantuml-src VPLDZzem48Rl-HKMToHY0xjSAY5KhIhrqEsgDox66S3TO5D_LEfM_U-ri-imJXnEZCBxpkEPSIOj71rncXXvEZlII0F2IQqg9rqBPCUjjgG1ugqcS_95dK19C3e-UjvM5HTE6p8RF9yHRhk_OpAkJY7Hx4LQ1nS-8tyh4hA1u1QYKGh9pLvPi87Q6NS_5ZNMxC2OiOHMUHvdTEE53Bf62ty1vRW8SdBqAlxoDXaPzcsjZdoIUVQAawlHVyBXTN8jinDfPNthWi_04Gm40k-wD4WJ-wP6gLOurTVG5ZuyT5AkYz09yKDMbt2Uj_9jKls8rPzRUP5gKhkfIYSMw6fyAEl5n86ZTY3DHsnWGaQdgYfeMRccWd9Pg2ZCyfUNLZfjzwg_DM2JPpLr0pvSo9Giwr6DT-KJ4xphASxnhgCqJG9MG33AMFlJ6SohJDEdYt4HlNeahijDcZPCpFUEepZbE_fyrky577HOAKtON0tSxiVLU3ZmP2k-fSdNtmewzOecPTBbirKyB5fo16WENBp6VJFKPtFz3kBCtqffDrZspHzQAK9vUKNTEkF6oLZk4CGMMNjUe0NHtPT-uVQril4hIvI7ttomcXajluUvA1lZa-UcYPhGsTZ0HlVGPTw8KvX4zpKGFgwff5gDZnPazXeQ4SfloR7rFpNXtkaBTrAaHS3MrR-gUjwI-VpJ-tVd5bCKCnGlKRn2yHh53oX-HF7c5eTTUOiHjqRS6d5hnAqHjqRS6d5hnAqHbo8kHLoAk1HnAU9InAM8In6N8Yv5N8Qu374PuZB4POZB49Uj_mC0?></g></svg>