<?plantuml 1.2026.2?><svg xmlns="http://www.w3.org/2000/svg" xmlns:xlink="http://www.w3.org/1999/xlink" contentStyleType="text/css" data-diagram-type="STATE" height="779px" preserveAspectRatio="none" style="width:3825px;height:779px;background:#FFFFFF;" version="1.1" viewBox="0 0 3825 779" width="3825px" zoomAndPan="magnify"><defs/><g><g class="start_entity" data-qualified-name=".start." data-source-line="3" id="ent0002"><ellipse cx="16" cy="338" fill="#222222" rx="10" ry="10" style="stroke:#222222;stroke-width:1;"/></g><g class="entity" data-qualified-name="SISTEMA_CERRADO" id="ent0003"><rect fill="#F1F1F1" height="50" rx="12.5" ry="12.5" style="stroke:#181818;stroke-width:0.5;" width="157.4092" x="87" y="313"/><line style="stroke:#181818;stroke-width:0.5;" x1="87" x2="244.4092" y1="339.2969" y2="339.2969"/><text fill="#000000" font-family="sans-serif" font-size="14" lengthAdjust="spacing" textLength="137.4092" x="97" y="330.9951">SISTEMA_CERRADO</text></g><g class="entity" data-qualified-name="SESIONES_ABIERTAS" id="ent0005"><rect fill="#F1F1F1" height="50" rx="12.5" ry="12.5" style="stroke:#181818;stroke-width:0.5;" width="165.8721" x="418" y="313"/><line style="stroke:#181818;stroke-width:0.5;" x1="418" x2="583.8721" y1="339.2969" y2="339.2969"/><text fill="#000000" font-family="sans-serif" font-size="14" lengthAdjust="spacing" textLength="145.8721" x="428" y="330.9951">SESIONES_ABIERTAS</text></g><g class="entity" data-qualified-name="DOCUMENTACION_ABIERTA" id="ent0009"><rect fill="#F1F1F1" height="50" rx="12.5" ry="12.5" style="stroke:#181818;stroke-width:0.5;" width="213.7578" x="787" y="313"/><line style="stroke:#181818;stroke-width:0.5;" x1="787" x2="1000.7578" y1="339.2969" y2="339.2969"/><text fill="#000000" font-family="sans-serif" font-size="14" lengthAdjust="spacing" textLength="193.7578" x="797" y="330.9951">DOCUMENTACION_ABIERTA</text></g><g class="entity" data-qualified-name="CASOS_USO_ABIERTO" id="ent0021"><rect fill="#F1F1F1" height="50" rx="12.5" ry="12.5" style="stroke:#181818;stroke-width:0.5;" width="173.7539" x="1626" y="330"/><line style="stroke:#181818;stroke-width:0.5;" x1="1626" x2="1799.7539" y1="356.2969" y2="356.2969"/><text fill="#000000" font-family="sans-serif" font-size="14" lengthAdjust="spacing" textLength="153.7539" x="1636" y="347.9951">CASOS_USO_ABIERTO</text></g><g class="entity" data-qualified-name="AGENTES_ABIERTO" id="ent0023"><rect fill="#F1F1F1" height="50" rx="12.5" ry="12.5" style="stroke:#181818;stroke-width:0.5;" width="154.4834" x="1255" y="330"/><line style="stroke:#181818;stroke-width:0.5;" x1="1255" x2="1409.4834" y1="356.2969" y2="356.2969"/><text fill="#000000" font-family="sans-serif" font-size="14" lengthAdjust="spacing" textLength="134.4834" x="1265" y="347.9951">AGENTES_ABIERTO</text></g><g class="entity" data-qualified-name="CASO_USO_ABIERTO" id="ent0030"><rect fill="#F1F1F1" height="50" rx="12.5" ry="12.5" style="stroke:#181818;stroke-width:0.5;" width="164.8672" x="2096" y="134"/><line style="stroke:#181818;stroke-width:0.5;" x1="2096" x2="2260.8672" y1="160.2969" y2="160.2969"/><text fill="#000000" font-family="sans-serif" font-size="14" lengthAdjust="spacing" textLength="144.8672" x="2106" y="151.9951">CASO_USO_ABIERTO</text></g><g class="entity" data-qualified-name="REQUISITOS_FUNCIONALES_ABIERTO" id="ent0036"><rect fill="#F1F1F1" height="50" rx="12.5" ry="12.5" style="stroke:#181818;stroke-width:0.5;" width="280.1758" x="2557" y="540"/><line style="stroke:#181818;stroke-width:0.5;" x1="2557" x2="2837.1758" y1="566.2969" y2="566.2969"/><text fill="#000000" font-family="sans-serif" font-size="14" lengthAdjust="spacing" textLength="260.1758" x="2567" y="557.9951">REQUISITOS_FUNCIONALES_ABIERTO</text></g><g class="entity" data-qualified-name="REQUISITO_FUNCIONAL_ABIERTO" id="ent0041"><rect fill="#F1F1F1" height="50" rx="12.5" ry="12.5" style="stroke:#181818;stroke-width:0.5;" width="253.5566" x="3095" y="540"/><line style="stroke:#181818;stroke-width:0.5;" x1="3095" x2="3348.5566" y1="566.2969" y2="566.2969"/><text fill="#000000" font-family="sans-serif" font-size="14" lengthAdjust="spacing" textLength="233.5566" x="3105" y="557.9951">REQUISITO_FUNCIONAL_ABIERTO</text></g><g class="entity" data-qualified-name="ESCENARIOS_GHERKIN_ABIERTO" id="ent0047"><rect fill="#F1F1F1" height="50" rx="12.5" ry="12.5" style="stroke:#181818;stroke-width:0.5;" width="249.3525" x="2054" y="444"/><line style="stroke:#181818;stroke-width:0.5;" x1="2054" x2="2303.3525" y1="470.2969" y2="470.2969"/><text fill="#000000" font-family="sans-serif" font-size="14" lengthAdjust="spacing" textLength="229.3525" x="2064" y="461.9951">ESCENARIOS_GHERKIN_ABIERTO</text></g><g class="entity" data-qualified-name="BORRADORES_ABIERTO" id="ent0057"><rect fill="#F1F1F1" height="50" rx="12.5" ry="12.5" style="stroke:#181818;stroke-width:0.5;" width="187.3711" x="2603.5" y="312"/><line style="stroke:#181818;stroke-width:0.5;" x1="2603.5" x2="2790.8711" y1="338.2969" y2="338.2969"/><text fill="#000000" font-family="sans-serif" font-size="14" lengthAdjust="spacing" textLength="167.3711" x="2613.5" y="329.9951">BORRADORES_ABIERTO</text></g><g class="entity" data-qualified-name="BORRADOR_ABIERTO" id="ent0062"><rect fill="#F1F1F1" height="50" rx="12.5" ry="12.5" style="stroke:#181818;stroke-width:0.5;" width="169.6387" x="3137" y="284"/><line style="stroke:#181818;stroke-width:0.5;" x1="3137" x2="3306.6387" y1="310.2969" y2="310.2969"/><text fill="#000000" font-family="sans-serif" font-size="14" lengthAdjust="spacing" textLength="149.6387" x="3147" y="301.9951">BORRADOR_ABIERTO</text></g><g class="entity" data-qualified-name="KIWI_TCMS_ABIERTO" id="ent0068"><rect fill="#F1F1F1" height="50" rx="12.5" ry="12.5" style="stroke:#181818;stroke-width:0.5;" width="166.0293" x="3652" y="285"/><line style="stroke:#181818;stroke-width:0.5;" x1="3652" x2="3818.0293" y1="311.2969" y2="311.2969"/><text fill="#000000" font-family="sans-serif" font-size="14" lengthAdjust="spacing" textLength="146.0293" x="3662" y="302.9951">KIWI_TCMS_ABIERTO</text></g><!--link *start* to SISTEMA_CERRADO--><g class="link" data-entity-1="ent0002" data-entity-2="ent0003" data-link-type="dependency" data-source-line="3" id="lnk4"><path d="M26.23,338 C38.78,338 56.46,338 80.73,338" fill="none" id="*start*-to-SISTEMA_CERRADO" style="stroke:#181818;stroke-width:1;"/><polygon fill="#181818" points="86.73,338,77.73,334,81.73,338,77.73,342,86.73,338" style="stroke:#181818;stroke-width:1;"/></g><!--link SISTEMA_CERRADO to SESIONES_ABIERTAS--><g class="link" data-entity-1="ent0003" data-entity-2="ent0005" data-link-type="dependency" data-source-line="6" id="lnk6"><path d="M244.11,323.43 C254.13,322.01 264.29,320.8 274,320 C324.49,315.8 337.49,315.96 388,320 C397.72,320.77 401.9134,321.1212 411.9634,322.4712" fill="none" id="SISTEMA_CERRADO-to-SESIONES_ABIERTAS" style="stroke:#181818;stroke-width:1;"/><polygon fill="#181818" points="417.91,323.27,409.5226,318.1074,412.9545,322.6043,408.4576,326.0362,417.91,323.27" style="stroke:#181818;stroke-width:1;"/><text fill="#000000" font-family="sans-serif" font-size="13" lengthAdjust="spacing" textLength="92.5044" x="285" y="313.0669">iniciarSesion()</text></g><!--link SISTEMA_CERRADO to SESIONES_ABIERTAS--><g class="link" data-entity-1="ent0003" data-entity-2="ent0005" data-link-type="dependency" data-source-line="7" id="lnk7"><path d="M244.27,343.66 C254.27,344.21 264.37,344.68 274,345 C324.64,346.64 337.36,346.58 388,345 C397.64,344.69 401.7484,344.5669 411.7684,344.0369" fill="none" id="SISTEMA_CERRADO-to-SESIONES_ABIERTAS-1" style="stroke:#181818;stroke-width:1;"/><polygon fill="#181818" points="417.76,343.72,408.5613,340.201,412.767,343.9841,408.9838,348.1898,417.76,343.72" style="stroke:#181818;stroke-width:1;"/><text fill="#000000" font-family="sans-serif" font-size="13" lengthAdjust="spacing" textLength="112.4932" x="275" y="341.0669">registrarCuenta()</text></g><!--link SESIONES_ABIERTAS to SISTEMA_CERRADO--><g class="link" data-entity-1="ent0005" data-entity-2="ent0003" data-link-type="dependency" data-source-line="8" id="lnk8"><path d="M428.72,363.04 C415.35,366.76 401.37,370.01 388,372 C337.88,379.44 324.07,379.73 274,372 C261.14,370.01 253.463,368.4297 240.623,364.7097" fill="none" id="SESIONES_ABIERTAS-to-SISTEMA_CERRADO" style="stroke:#181818;stroke-width:1;"/><polygon fill="#181818" points="234.86,363.04,242.3914,369.3865,239.6625,364.4314,244.6176,361.7025,234.86,363.04" style="stroke:#181818;stroke-width:1;"/><text fill="#000000" font-family="sans-serif" font-size="13" lengthAdjust="spacing" textLength="92.1172" x="285" y="368.0669">cerrarSesion()</text></g><!--link SESIONES_ABIERTAS to DOCUMENTACION_ABIERTA--><g class="link" data-entity-1="ent0005" data-entity-2="ent0009" data-link-type="dependency" data-source-line="11" id="lnk10"><path d="M584.44,338 C643.37,338 717.17,338 780.86,338" fill="none" id="SESIONES_ABIERTAS-to-DOCUMENTACION_ABIERTA" style="stroke:#181818;stroke-width:1;"/><polygon fill="#181818" points="786.86,338,777.86,334,781.86,338,777.86,342,786.86,338" style="stroke:#181818;stroke-width:1;"/><text fill="#000000" font-family="sans-serif" font-size="13" lengthAdjust="spacing" textLength="141.5337" x="615" y="334.0669">seleccionarSesiones()</text></g><!--link SESIONES_ABIERTAS to DOCUMENTACION_ABIERTA--><g class="link" data-entity-1="ent0005" data-entity-2="ent0009" data-link-type="dependency" data-source-line="12" id="lnk11"><path d="M584.23,358.5 C594.2,360.35 604.3,361.93 614,363 C677.17,369.96 693.71,368.76 757,363 C766.68,362.11 770.7711,361.7343 780.7811,360.2943" fill="none" id="SESIONES_ABIERTAS-to-DOCUMENTACION_ABIERTA-1" style="stroke:#181818;stroke-width:1;"/><polygon fill="#181818" points="786.72,359.44,777.2421,356.7623,781.7709,360.152,778.3813,364.6808,786.72,359.44" style="stroke:#181818;stroke-width:1;"/><text fill="#000000" font-family="sans-serif" font-size="13" lengthAdjust="spacing" textLength="128.394" x="621.5" y="359.0669">crearNuevaSesion()</text></g><!--link SESIONES_ABIERTAS to SESIONES_ABIERTAS--><g class="link" data-entity-1="ent0005" data-entity-2="ent0005" data-link-type="dependency" data-source-line="13" id="lnk12"><path d="M472.24,312.72 C463.52,295.22 473.11,278 501,278 C528.89,278 541.1559,289.8498 532.4359,307.3498" fill="none" id="SESIONES_ABIERTAS-to-SESIONES_ABIERTAS" style="stroke:#181818;stroke-width:1;"/><polygon fill="#181818" points="529.76,312.72,537.354,306.4486,531.9899,308.2448,530.1937,302.8807,529.76,312.72" style="stroke:#181818;stroke-width:1;"/><text fill="#000000" font-family="sans-serif" font-size="13" lengthAdjust="spacing" textLength="106.0186" x="448" y="269.0669">eliminarSesion()</text></g><!--link DOCUMENTACION_ABIERTA to DOCUMENTACION_ABIERTA--><g class="link" data-entity-1="ent0009" data-entity-2="ent0009" data-link-type="dependency" data-source-line="16" id="lnk13"><path d="M889.6,312.72 C888.27,295.22 889.73,278 894,278 C898.27,278 900.1847,289.2373 898.8547,306.7373" fill="none" id="DOCUMENTACION_ABIERTA-to-DOCUMENTACION_ABIERTA" style="stroke:#181818;stroke-width:1;"/><polygon fill="#181818" points="898.4,312.72,903.0705,304.049,898.7789,307.7344,895.0935,303.4428,898.4,312.72" style="stroke:#181818;stroke-width:1;"/><text fill="#000000" font-family="sans-serif" font-size="13" lengthAdjust="spacing" textLength="237.7388" x="775.5" y="269.0669">introducirDocumentacionFuncional()</text></g><!--link DOCUMENTACION_ABIERTA to DOCUMENTACION_ABIERTA--><g class="link" data-entity-1="ent0009" data-entity-2="ent0009" data-link-type="dependency" data-source-line="17" id="lnk14"><path d="M887.17,312.7 C881.67,280.88 883.95,243 894,243 C904.05,243 907.3519,274.9677 901.8519,306.7877" fill="none" id="DOCUMENTACION_ABIERTA-to-DOCUMENTACION_ABIERTA-1" style="stroke:#181818;stroke-width:1;"/><polygon fill="#181818" points="900.83,312.7,906.3044,304.5128,901.6816,307.7731,898.4213,303.1502,900.83,312.7" style="stroke:#181818;stroke-width:1;"/><text fill="#000000" font-family="sans-serif" font-size="13" lengthAdjust="spacing" textLength="225.0942" x="781.5" y="234.0669">asociarDocumentacionAProyecto()</text></g><!--link DOCUMENTACION_ABIERTA to DOCUMENTACION_ABIERTA--><g class="link" data-entity-1="ent0009" data-entity-2="ent0009" data-link-type="dependency" data-source-line="18" id="lnk15"><path d="M885.75,312.79 C875.06,267.71 877.81,208 894,208 C910.19,208 914.3244,261.8719 903.6344,306.9519" fill="none" id="DOCUMENTACION_ABIERTA-to-DOCUMENTACION_ABIERTA-2" style="stroke:#181818;stroke-width:1;"/><polygon fill="#181818" points="902.25,312.79,908.2187,304.9558,903.4037,307.9249,900.4346,303.1099,902.25,312.79" style="stroke:#181818;stroke-width:1;"/><text fill="#000000" font-family="sans-serif" font-size="13" lengthAdjust="spacing" textLength="306.4966" x="741" y="199.0669">consultarReferenciasDocumentacionProyecto()</text></g><!--link DOCUMENTACION_ABIERTA to DOCUMENTACION_ABIERTA--><g class="link" data-entity-1="ent0009" data-entity-2="ent0009" data-link-type="dependency" data-source-line="19" id="lnk16"><path d="M884.79,312.77 C868.49,254.97 871.55,173 894,173 C916.45,173 921.1385,249.1952 904.8385,306.9952" fill="none" id="DOCUMENTACION_ABIERTA-to-DOCUMENTACION_ABIERTA-3" style="stroke:#181818;stroke-width:1;"/><polygon fill="#181818" points="903.21,312.77,909.5026,305.1935,904.5671,307.9577,901.8029,303.0222,903.21,312.77" style="stroke:#181818;stroke-width:1;"/><text fill="#000000" font-family="sans-serif" font-size="13" lengthAdjust="spacing" textLength="144.8154" x="822" y="164.0669">listarDocumentacion()</text></g><!--link DOCUMENTACION_ABIERTA to DOCUMENTACION_ABIERTA--><g class="link" data-entity-1="ent0009" data-entity-2="ent0009" data-link-type="dependency" data-source-line="20" id="lnk17"><path d="M884.06,312.6 C861.93,242.37 865.25,138 894,138 C922.75,138 927.8732,236.6474 905.7432,306.8774" fill="none" id="DOCUMENTACION_ABIERTA-to-DOCUMENTACION_ABIERTA-4" style="stroke:#181818;stroke-width:1;"/><polygon fill="#181818" points="903.94,312.6,910.4599,305.2182,905.4427,307.8312,902.8298,302.8139,903.94,312.6" style="stroke:#181818;stroke-width:1;"/><text fill="#000000" font-family="sans-serif" font-size="13" lengthAdjust="spacing" textLength="172.7832" x="808" y="129.0669">consultarDocumentacion()</text></g><!--link DOCUMENTACION_ABIERTA to DOCUMENTACION_ABIERTA--><g class="link" data-entity-1="ent0009" data-entity-2="ent0009" data-link-type="dependency" data-source-line="21" id="lnk18"><path d="M883.6,312.76 C855.38,230.28 858.85,103 894,103 C929.15,103 934.5623,224.6031 906.3423,307.0831" fill="none" id="DOCUMENTACION_ABIERTA-to-DOCUMENTACION_ABIERTA-5" style="stroke:#181818;stroke-width:1;"/><polygon fill="#181818" points="904.4,312.76,911.0981,305.5395,906.0186,308.0292,903.5289,302.9497,904.4,312.76" style="stroke:#181818;stroke-width:1;"/><text fill="#000000" font-family="sans-serif" font-size="13" lengthAdjust="spacing" textLength="176.1855" x="806" y="94.0669">actualizarDocumentacion()</text></g><!--link DOCUMENTACION_ABIERTA to DOCUMENTACION_ABIERTA--><g class="link" data-entity-1="ent0009" data-entity-2="ent0009" data-link-type="dependency" data-source-line="22" id="lnk19"><path d="M883.28,312.97 C848.84,218.39 852.41,68 894,68 C935.59,68 941.2129,212.7521 906.7729,307.3321" fill="none" id="DOCUMENTACION_ABIERTA-to-DOCUMENTACION_ABIERTA-6" style="stroke:#181818;stroke-width:1;"/><polygon fill="#181818" points="904.72,312.97,911.558,305.8818,906.4308,308.2718,904.0409,303.1446,904.72,312.97" style="stroke:#181818;stroke-width:1;"/><text fill="#000000" font-family="sans-serif" font-size="13" lengthAdjust="spacing" textLength="165.458" x="811.5" y="59.0669">eliminarDocumentacion()</text></g><!--link DOCUMENTACION_ABIERTA to DOCUMENTACION_ABIERTA--><g class="link" data-entity-1="ent0009" data-entity-2="ent0009" data-link-type="dependency" data-source-line="23" id="lnk20"><path d="M882.89,312.79 C842.31,206.17 846.01,33 894,33 C941.99,33 947.8243,200.5624 907.2443,307.1824" fill="none" id="DOCUMENTACION_ABIERTA-to-DOCUMENTACION_ABIERTA-7" style="stroke:#181818;stroke-width:1;"/><polygon fill="#181818" points="905.11,312.79,912.0498,305.8015,906.8886,308.117,904.573,302.9558,905.11,312.79" style="stroke:#181818;stroke-width:1;"/><text fill="#000000" font-family="sans-serif" font-size="13" lengthAdjust="spacing" textLength="133.2056" x="827.5" y="24.0669">guardarResultados()</text></g><!--link DOCUMENTACION_ABIERTA to CASOS_USO_ABIERTO--><g class="link" data-entity-1="ent0009" data-entity-2="ent0021" data-link-type="dependency" data-source-line="25" id="lnk22"><path d="M1001,320.26 C1011.12,318.98 1021.24,317.85 1031,317 C1281.21,294.98 1347.8,291.44 1596,330 C1605.67,331.5 1609.8509,332.1516 1619.8509,334.1016" fill="none" id="DOCUMENTACION_ABIERTA-to-CASOS_USO_ABIERTO" style="stroke:#181818;stroke-width:1;"/><polygon fill="#181818" points="1625.74,335.25,1617.672,329.6014,1620.8324,334.293,1616.1408,337.4535,1625.74,335.25" style="stroke:#181818;stroke-width:1;"/><text fill="#000000" font-family="sans-serif" font-size="13" lengthAdjust="spacing" textLength="98.2236" x="1283" y="297.0669">gestionarCdU()</text></g><!--link CASOS_USO_ABIERTO to DOCUMENTACION_ABIERTA--><g class="link" data-entity-1="ent0021" data-entity-2="ent0009" data-link-type="dependency" data-source-line="33" id="lnk27"><path d="M1625.82,376.73 C1565.54,390.78 1482.92,407.75 1409,415 C1241.34,431.44 1194.83,426.23 1031,387 C1005.74,380.95 984.284,373.8973 961.004,365.1173" fill="none" id="CASOS_USO_ABIERTO-to-DOCUMENTACION_ABIERTA" style="stroke:#181818;stroke-width:1;"/><polygon fill="#181818" points="955.39,363,962.3995,369.9186,960.0683,364.7644,965.2225,362.4333,955.39,363" style="stroke:#181818;stroke-width:1;"/><text fill="#000000" font-family="sans-serif" font-size="13" lengthAdjust="spacing" textLength="125.9248" x="1269.5" y="411.0669">completarGestion()</text></g><!--link DOCUMENTACION_ABIERTA to AGENTES_ABIERTO--><g class="link" data-entity-1="ent0009" data-entity-2="ent0023" data-link-type="dependency" data-source-line="26" id="lnk24"><path d="M1001.3,340.26 C1065.99,341.87 1150.29,344.4 1225,348 C1234.67,348.46 1238.841,348.6665 1248.891,349.2765" fill="none" id="DOCUMENTACION_ABIERTA-to-AGENTES_ABIERTO" style="stroke:#181818;stroke-width:1;"/><polygon fill="#181818" points="1254.88,349.64,1246.1389,345.1021,1249.8892,349.3371,1245.6542,353.0874,1254.88,349.64" style="stroke:#181818;stroke-width:1;"/><text fill="#000000" font-family="sans-serif" font-size="13" lengthAdjust="spacing" textLength="192.6323" x="1032" y="338.0669">crearTraspasoHaciaAgentes()</text></g><!--link AGENTES_ABIERTO to DOCUMENTACION_ABIERTA--><g class="link" data-entity-1="ent0023" data-entity-2="ent0009" data-link-type="dependency" data-source-line="30" id="lnk26"><path d="M1254.77,369.52 C1244.79,370.95 1234.67,372.18 1225,373 C1139.08,380.24 1116.54,383.83 1031,373 C1013.83,370.82 1001.5528,368.5665 984.3428,364.4165" fill="none" id="AGENTES_ABIERTO-to-DOCUMENTACION_ABIERTA" style="stroke:#181818;stroke-width:1;"/><polygon fill="#181818" points="978.51,363.01,986.3215,369.0083,983.3707,364.1821,988.1969,361.2312,978.51,363.01" style="stroke:#181818;stroke-width:1;"/><text fill="#000000" font-family="sans-serif" font-size="13" lengthAdjust="spacing" textLength="125.9438" x="1065.5" y="369.0669">rechazarTraspaso()</text></g><!--link AGENTES_ABIERTO to CASOS_USO_ABIERTO--><g class="link" data-entity-1="ent0023" data-entity-2="ent0021" data-link-type="dependency" data-source-line="29" id="lnk25"><path d="M1409.24,355 C1471.93,355 1554.73,355 1619.96,355" fill="none" id="AGENTES_ABIERTO-to-CASOS_USO_ABIERTO" style="stroke:#181818;stroke-width:1;"/><polygon fill="#181818" points="1625.96,355,1616.96,351,1620.96,355,1616.96,359,1625.96,355" style="stroke:#181818;stroke-width:1;"/><text fill="#000000" font-family="sans-serif" font-size="13" lengthAdjust="spacing" textLength="155.1938" x="1440" y="351.0669">iniciarFlujoAutomatico()</text></g><!--link CASOS_USO_ABIERTO to CASOS_USO_ABIERTO--><g class="link" data-entity-1="ent0021" data-entity-2="ent0021" data-link-type="dependency" data-source-line="34" id="lnk28"><path d="M1696.59,329.72 C1691.62,312.22 1697.09,295 1713,295 C1728.91,295 1736.0192,306.4482 1731.0492,323.9482" fill="none" id="CASOS_USO_ABIERTO-to-CASOS_USO_ABIERTO" style="stroke:#181818;stroke-width:1;"/><polygon fill="#181818" points="1729.41,329.72,1735.7166,322.1552,1730.776,324.9102,1728.0209,319.9696,1729.41,329.72" style="stroke:#181818;stroke-width:1;"/><text fill="#000000" font-family="sans-serif" font-size="13" lengthAdjust="spacing" textLength="69.3926" x="1678.5" y="286.0669">listarCdU()</text></g><!--link CASOS_USO_ABIERTO to CASOS_USO_ABIERTO--><g class="link" data-entity-1="ent0021" data-entity-2="ent0021" data-link-type="dependency" data-source-line="35" id="lnk29"><path d="M1687.5,329.7 C1666.99,297.88 1675.49,260 1713,260 C1750.51,260 1762.2606,292.8368 1741.7506,324.6568" fill="none" id="CASOS_USO_ABIERTO-to-CASOS_USO_ABIERTO-1" style="stroke:#181818;stroke-width:1;"/><polygon fill="#181818" points="1738.5,329.7,1746.738,324.3024,1741.2089,325.4974,1740.0138,319.9682,1738.5,329.7" style="stroke:#181818;stroke-width:1;"/><text fill="#000000" font-family="sans-serif" font-size="13" lengthAdjust="spacing" textLength="133.2056" x="1646.5" y="251.0669">guardarResultados()</text></g><!--link CASOS_USO_ABIERTO to CASO_USO_ABIERTO--><g class="link" data-entity-1="ent0021" data-entity-2="ent0030" data-link-type="dependency" data-source-line="37" id="lnk31"><path d="M1800.34,367.8 C1880.13,377.55 1991.13,385.18 2024,358 C2078.74,312.72 2007.38,254.6 2054,201 C2065.07,188.27 2074.572,181.5751 2090.402,175.3851" fill="none" id="CASOS_USO_ABIERTO-to-CASO_USO_ABIERTO" style="stroke:#181818;stroke-width:1;"/><polygon fill="#181818" points="2095.99,173.2,2086.1513,172.7523,2091.3334,175.0209,2089.0647,180.2029,2095.99,173.2" style="stroke:#181818;stroke-width:1;"/><text fill="#000000" font-family="sans-serif" font-size="13" lengthAdjust="spacing" textLength="97.3604" x="1878.5" y="354.0669">consultarCdU()</text></g><!--link CASOS_USO_ABIERTO to CASO_USO_ABIERTO--><g class="link" data-entity-1="ent0021" data-entity-2="ent0030" data-link-type="dependency" data-source-line="38" id="lnk32"><path d="M1720.91,329.69 C1734.08,287.04 1767.2,201.97 1830,166 C1911.16,119.5 2015.5189,125.7108 2089.8989,138.6608" fill="none" id="CASOS_USO_ABIERTO-to-CASO_USO_ABIERTO-1" style="stroke:#181818;stroke-width:1;"/><polygon fill="#181818" points="2095.81,139.69,2087.6295,134.2056,2090.8841,138.8324,2086.2573,142.087,2095.81,139.69" style="stroke:#181818;stroke-width:1;"/><text fill="#000000" font-family="sans-serif" font-size="13" lengthAdjust="spacing" textLength="70.7891" x="1892" y="126.0669">crearCdU()</text></g><!--link CASOS_USO_ABIERTO to CASO_USO_ABIERTO--><g class="link" data-entity-1="ent0021" data-entity-2="ent0030" data-link-type="dependency" data-source-line="39" id="lnk33"><path d="M1728.45,329.91 C1747.53,299.29 1784.12,248.46 1830,223 C1906.41,180.59 1938.1,207.03 2024,191 C2047.42,186.63 2066.8863,182.7248 2090.0963,177.8848" fill="none" id="CASOS_USO_ABIERTO-to-CASO_USO_ABIERTO-2" style="stroke:#181818;stroke-width:1;"/><polygon fill="#181818" points="2095.97,176.66,2086.343,174.5815,2091.0753,177.6807,2087.9761,182.413,2095.97,176.66" style="stroke:#181818;stroke-width:1;"/><text fill="#000000" font-family="sans-serif" font-size="13" lengthAdjust="spacing" textLength="100.7627" x="1877" y="187.0669">actualizarCdU()</text></g><!--link CASOS_USO_ABIERTO to CASO_USO_ABIERTO--><g class="link" data-entity-1="ent0021" data-entity-2="ent0030" data-link-type="dependency" data-source-line="40" id="lnk34"><path d="M1745.06,329.85 C1767.38,313.09 1798.91,292.01 1830,280 C1911.51,248.5 1951.05,296.11 2024,248 C2044.69,234.35 2034.5,216.29 2054,201 C2066.29,191.35 2075.3422,186.0354 2090.1722,180.2354" fill="none" id="CASOS_USO_ABIERTO-to-CASO_USO_ABIERTO-3" style="stroke:#181818;stroke-width:1;"/><polygon fill="#181818" points="2095.76,178.05,2085.9213,177.6029,2091.1035,179.8712,2088.8352,185.0533,2095.76,178.05" style="stroke:#181818;stroke-width:1;"/><text fill="#000000" font-family="sans-serif" font-size="13" lengthAdjust="spacing" textLength="90.0352" x="1882" y="244.0669">eliminarCdU()</text></g><!--link CASO_USO_ABIERTO to CASOS_USO_ABIERTO--><g class="link" data-entity-1="ent0030" data-entity-2="ent0021" data-link-type="dependency" data-source-line="41" id="lnk35"><path d="M2095.89,174.36 C2080.36,180.48 2065.41,189.03 2054,201 C2020.79,235.8 2060.01,273.1 2024,305 C2022.94,305.94 1897.6561,325.9313 1806.3061,340.4013" fill="none" id="CASO_USO_ABIERTO-to-CASOS_USO_ABIERTO" style="stroke:#181818;stroke-width:1;"/><polygon fill="#181818" points="1800.38,341.34,1809.895,343.8827,1805.3184,340.5577,1808.6434,335.9812,1800.38,341.34" style="stroke:#181818;stroke-width:1;"/><text fill="#000000" font-family="sans-serif" font-size="13" lengthAdjust="spacing" textLength="125.9248" x="1864.5" y="301.0669">completarGestion()</text></g><!--link CASOS_USO_ABIERTO to REQUISITOS_FUNCIONALES_ABIERTO--><g class="link" data-entity-1="ent0021" data-entity-2="ent0036" data-link-type="dependency" data-source-line="44" id="lnk37"><path d="M1725.35,380.03 C1742.55,414.71 1778.7,476.33 1830,505 C2058.91,632.93 2370.7662,615.4891 2550.8762,590.6691" fill="none" id="CASOS_USO_ABIERTO-to-REQUISITOS_FUNCIONALES_ABIERTO" style="stroke:#181818;stroke-width:1;"/><polygon fill="#181818" points="2556.82,589.85,2547.3582,587.1161,2551.8668,590.5326,2548.4503,595.0412,2556.82,589.85" style="stroke:#181818;stroke-width:1;"/><text fill="#000000" font-family="sans-serif" font-size="13" lengthAdjust="spacing" textLength="215.979" x="2071" y="582.0669">gestionarRequisitosFuncionales()</text></g><!--link REQUISITOS_FUNCIONALES_ABIERTO to CASOS_USO_ABIERTO--><g class="link" data-entity-1="ent0036" data-entity-2="ent0021" data-link-type="dependency" data-source-line="45" id="lnk38"><path d="M2634,590.06 C2479.73,647.94 2073.55,772.17 1830,585 C1761.39,532.26 1731.5784,433.6842 1720.4584,385.8442" fill="none" id="REQUISITOS_FUNCIONALES_ABIERTO-to-CASOS_USO_ABIERTO" style="stroke:#181818;stroke-width:1;"/><polygon fill="#181818" points="1719.1,380,1717.2415,389.6719,1720.232,384.8702,1725.0338,387.8607,1719.1,380" style="stroke:#181818;stroke-width:1;"/><text fill="#000000" font-family="sans-serif" font-size="13" lengthAdjust="spacing" textLength="125.9248" x="2116" y="672.0669">completarGestion()</text></g><!--link REQUISITOS_FUNCIONALES_ABIERTO to REQUISITOS_FUNCIONALES_ABIERTO--><g class="link" data-entity-1="ent0036" data-entity-2="ent0036" data-link-type="dependency" data-source-line="46" id="lnk39"><path d="M2674.5,539.72 C2667.68,522.22 2675.18,505 2697,505 C2718.82,505 2728.4987,516.6295 2721.6787,534.1295" fill="none" id="REQUISITOS_FUNCIONALES_ABIERTO-to-REQUISITOS_FUNCIONALES_ABIERTO" style="stroke:#181818;stroke-width:1;"/><polygon fill="#181818" points="2719.5,539.72,2726.495,532.7868,2721.3156,535.0613,2719.041,529.8818,2719.5,539.72" style="stroke:#181818;stroke-width:1;"/><text fill="#000000" font-family="sans-serif" font-size="13" lengthAdjust="spacing" textLength="187.1479" x="2603.5" y="496.0669">listarRequisitosFuncionales()</text></g><!--link REQUISITOS_FUNCIONALES_ABIERTO to REQUISITOS_FUNCIONALES_ABIERTO--><g class="link" data-entity-1="ent0036" data-entity-2="ent0036" data-link-type="dependency" data-source-line="47" id="lnk40"><path d="M2662.04,539.7 C2633.91,507.88 2645.57,470 2697,470 C2748.43,470 2764.064,503.3847 2735.934,535.2047" fill="none" id="REQUISITOS_FUNCIONALES_ABIERTO-to-REQUISITOS_FUNCIONALES_ABIERTO-1" style="stroke:#181818;stroke-width:1;"/><polygon fill="#181818" points="2731.96,539.7,2740.9178,535.6064,2735.2716,535.9539,2734.9241,530.3078,2731.96,539.7" style="stroke:#181818;stroke-width:1;"/><text fill="#000000" font-family="sans-serif" font-size="13" lengthAdjust="spacing" textLength="133.2056" x="2630.5" y="461.0669">guardarResultados()</text></g><!--link REQUISITOS_FUNCIONALES_ABIERTO to REQUISITO_FUNCIONAL_ABIERTO--><g class="link" data-entity-1="ent0036" data-entity-2="ent0041" data-link-type="dependency" data-source-line="49" id="lnk42"><path d="M2723.34,590.12 C2754.22,618.78 2809.43,664.01 2867,682 C2951,708.23 2981.52,709.82 3065,682 C3119.28,663.9 3165.6757,622.9906 3193.7957,594.3606" fill="none" id="REQUISITOS_FUNCIONALES_ABIERTO-to-REQUISITO_FUNCIONAL_ABIERTO" style="stroke:#181818;stroke-width:1;"/><polygon fill="#181818" points="3198,590.08,3188.8398,593.698,3194.4964,593.6472,3194.5472,599.3038,3198,590.08" style="stroke:#181818;stroke-width:1;"/><text fill="#000000" font-family="sans-serif" font-size="13" lengthAdjust="spacing" textLength="193.5718" x="2869.5" y="678.0669">consultarRequisitoFuncional()</text></g><!--link REQUISITOS_FUNCIONALES_ABIERTO to REQUISITO_FUNCIONAL_ABIERTO--><g class="link" data-entity-1="ent0036" data-entity-2="ent0041" data-link-type="dependency" data-source-line="50" id="lnk43"><path d="M2740.77,539.99 C2773.96,522.11 2821.78,499.58 2867,490 C2953.09,471.75 2979.2,470.44 3065,490 C3107.04,499.58 3145.7921,518.9486 3176.2821,536.7986" fill="none" id="REQUISITOS_FUNCIONALES_ABIERTO-to-REQUISITO_FUNCIONAL_ABIERTO-1" style="stroke:#181818;stroke-width:1;"/><polygon fill="#181818" points="3181.46,539.83,3175.714,531.831,3177.1451,537.3039,3171.6722,538.7349,3181.46,539.83" style="stroke:#181818;stroke-width:1;"/><text fill="#000000" font-family="sans-serif" font-size="13" lengthAdjust="spacing" textLength="167.0005" x="2882.5" y="471.0669">crearRequisitoFuncional()</text></g><!--link REQUISITOS_FUNCIONALES_ABIERTO to REQUISITO_FUNCIONAL_ABIERTO--><g class="link" data-entity-1="ent0036" data-entity-2="ent0041" data-link-type="dependency" data-source-line="51" id="lnk44"><path d="M2837.16,548.99 C2847.25,548.19 2857.28,547.51 2867,547 C2954.88,542.33 2977.15,541.94 3065,547 C3074.66,547.55 3078.6624,547.7815 3088.6924,548.6515" fill="none" id="REQUISITOS_FUNCIONALES_ABIERTO-to-REQUISITO_FUNCIONAL_ABIERTO-2" style="stroke:#181818;stroke-width:1;"/><polygon fill="#181818" points="3094.67,549.17,3086.0493,544.4072,3089.6887,548.7379,3085.358,552.3773,3094.67,549.17" style="stroke:#181818;stroke-width:1;"/><text fill="#000000" font-family="sans-serif" font-size="13" lengthAdjust="spacing" textLength="196.9741" x="2868" y="539.0669">actualizarRequisitoFuncional()</text></g><!--link REQUISITOS_FUNCIONALES_ABIERTO to REQUISITO_FUNCIONAL_ABIERTO--><g class="link" data-entity-1="ent0036" data-entity-2="ent0041" data-link-type="dependency" data-source-line="52" id="lnk45"><path d="M2837.24,571.22 C2847.31,571.53 2857.31,571.8 2867,572 C2954.98,573.82 2977.02,573.97 3065,572 C3074.62,571.78 3078.5735,571.6937 3088.5835,571.3537" fill="none" id="REQUISITOS_FUNCIONALES_ABIERTO-to-REQUISITO_FUNCIONAL_ABIERTO-3" style="stroke:#181818;stroke-width:1;"/><polygon fill="#181818" points="3094.58,571.15,3085.4494,567.4578,3089.5829,571.3197,3085.721,575.4532,3094.58,571.15" style="stroke:#181818;stroke-width:1;"/><text fill="#000000" font-family="sans-serif" font-size="13" lengthAdjust="spacing" textLength="186.2466" x="2873" y="568.0669">eliminarRequisitoFuncional()</text></g><!--link REQUISITO_FUNCIONAL_ABIERTO to REQUISITOS_FUNCIONALES_ABIERTO--><g class="link" data-entity-1="ent0041" data-entity-2="ent0036" data-link-type="dependency" data-source-line="53" id="lnk46"><path d="M3117.43,590.05 C3100.02,593.35 3082.07,596.21 3065,598 C2977.48,607.15 2954.59,606.47 2867,598 C2848.55,596.21 2835.0396,594.3977 2816.1896,591.0877" fill="none" id="REQUISITO_FUNCIONAL_ABIERTO-to-REQUISITOS_FUNCIONALES_ABIERTO" style="stroke:#181818;stroke-width:1;"/><polygon fill="#181818" points="2810.28,590.05,2818.4526,595.5463,2815.2047,590.9148,2819.8362,587.6668,2810.28,590.05" style="stroke:#181818;stroke-width:1;"/><text fill="#000000" font-family="sans-serif" font-size="13" lengthAdjust="spacing" textLength="125.9248" x="2903.5" y="594.0669">completarGestion()</text></g><!--link CASOS_USO_ABIERTO to ESCENARIOS_GHERKIN_ABIERTO--><g class="link" data-entity-1="ent0021" data-entity-2="ent0047" data-link-type="dependency" data-source-line="56" id="lnk48"><path d="M1729.8,380.16 C1749.33,408.63 1785.51,453.46 1830,472 C1900.17,501.24 1979.4887,501.6504 2047.9987,493.8304" fill="none" id="CASOS_USO_ABIERTO-to-ESCENARIOS_GHERKIN_ABIERTO" style="stroke:#181818;stroke-width:1;"/><polygon fill="#181818" points="2053.96,493.15,2044.5644,490.1965,2048.9923,493.717,2045.4717,498.1449,2053.96,493.15" style="stroke:#181818;stroke-width:1;"/><text fill="#000000" font-family="sans-serif" font-size="13" lengthAdjust="spacing" textLength="192.4355" x="1831" y="468.0669">gestionarEscenariosGherkin()</text></g><!--link ESCENARIOS_GHERKIN_ABIERTO to CASOS_USO_ABIERTO--><g class="link" data-entity-1="ent0047" data-entity-2="ent0021" data-link-type="dependency" data-source-line="58" id="lnk50"><path d="M2053.58,454.01 C1971.1,443.23 1870.7,428.29 1830,415 C1803.71,406.41 1781.3439,395.3491 1759.6739,383.0091" fill="none" id="ESCENARIOS_GHERKIN_ABIERTO-to-CASOS_USO_ABIERTO" style="stroke:#181818;stroke-width:1;"/><polygon fill="#181818" points="1754.46,380.04,1760.3015,387.9695,1758.8049,382.5142,1764.2602,381.0177,1754.46,380.04" style="stroke:#181818;stroke-width:1;"/><text fill="#000000" font-family="sans-serif" font-size="13" lengthAdjust="spacing" textLength="125.9248" x="1864.5" y="411.0669">completarGestion()</text></g><!--link REQUISITOS_FUNCIONALES_ABIERTO to ESCENARIOS_GHERKIN_ABIERTO--><g class="link" data-entity-1="ent0036" data-entity-2="ent0047" data-link-type="dependency" data-source-line="57" id="lnk49"><path d="M2652.06,539.85 C2618.85,522.21 2571.53,499.89 2527,489 C2454.22,471.18 2376.4097,465.9908 2309.3397,465.3108" fill="none" id="REQUISITOS_FUNCIONALES_ABIERTO-to-ESCENARIOS_GHERKIN_ABIERTO" style="stroke:#181818;stroke-width:1;"/><polygon fill="#181818" points="2303.34,465.25,2312.299,469.341,2308.3397,465.3007,2312.3801,461.3414,2303.34,465.25" style="stroke:#181818;stroke-width:1;"/><text fill="#000000" font-family="sans-serif" font-size="13" lengthAdjust="spacing" textLength="192.4355" x="2334" y="462.0669">gestionarEscenariosGherkin()</text></g><!--link ESCENARIOS_GHERKIN_ABIERTO to REQUISITOS_FUNCIONALES_ABIERTO--><g class="link" data-entity-1="ent0047" data-entity-2="ent0036" data-link-type="dependency" data-source-line="59" id="lnk51"><path d="M2257.03,494.11 C2281.18,501.28 2308.02,508.61 2333,514 C2374.84,523.02 2466.9602,535.8656 2550.6302,546.7556" fill="none" id="ESCENARIOS_GHERKIN_ABIERTO-to-REQUISITOS_FUNCIONALES_ABIERTO" style="stroke:#181818;stroke-width:1;"/><polygon fill="#181818" points="2556.58,547.53,2548.1715,542.4019,2551.6218,546.8847,2547.139,550.335,2556.58,547.53" style="stroke:#181818;stroke-width:1;"/><text fill="#000000" font-family="sans-serif" font-size="13" lengthAdjust="spacing" textLength="125.9248" x="2367.5" y="510.0669">completarGestion()</text></g><!--link ESCENARIOS_GHERKIN_ABIERTO to ESCENARIOS_GHERKIN_ABIERTO--><g class="link" data-entity-1="ent0047" data-entity-2="ent0047" data-link-type="dependency" data-source-line="60" id="lnk52"><path d="M2170.04,443.72 C2167.48,426.22 2170.3,409 2178.5,409 C2186.7,409 2190.3885,420.2832 2187.8285,437.7832" fill="none" id="ESCENARIOS_GHERKIN_ABIERTO-to-ESCENARIOS_GHERKIN_ABIERTO" style="stroke:#181818;stroke-width:1;"/><polygon fill="#181818" points="2186.96,443.72,2192.2206,435.3938,2187.6837,438.7727,2184.3048,434.2358,2186.96,443.72" style="stroke:#181818;stroke-width:1;"/><text fill="#000000" font-family="sans-serif" font-size="13" lengthAdjust="spacing" textLength="163.6045" x="2097" y="400.0669">listarEscenariosGherkin()</text></g><!--link ESCENARIOS_GHERKIN_ABIERTO to ESCENARIOS_GHERKIN_ABIERTO--><g class="link" data-entity-1="ent0047" data-entity-2="ent0047" data-link-type="dependency" data-source-line="61" id="lnk53"><path d="M2165.36,443.7 C2154.78,411.88 2159.16,374 2178.5,374 C2197.84,374 2204.1131,406.1865 2193.5331,438.0065" fill="none" id="ESCENARIOS_GHERKIN_ABIERTO-to-ESCENARIOS_GHERKIN_ABIERTO-1" style="stroke:#181818;stroke-width:1;"/><polygon fill="#181818" points="2191.64,443.7,2198.2753,436.4218,2193.2176,438.9554,2190.6839,433.8977,2191.64,443.7" style="stroke:#181818;stroke-width:1;"/><text fill="#000000" font-family="sans-serif" font-size="13" lengthAdjust="spacing" textLength="158.228" x="2099.5" y="365.0669">crearEscenarioGherkin()</text></g><!--link ESCENARIOS_GHERKIN_ABIERTO to ESCENARIOS_GHERKIN_ABIERTO--><g class="link" data-entity-1="ent0047" data-entity-2="ent0047" data-link-type="dependency" data-source-line="62" id="lnk54"><path d="M2162.63,443.79 C2142.08,398.71 2147.37,339 2178.5,339 C2209.63,339 2217.4087,393.2505 2196.8587,438.3305" fill="none" id="ESCENARIOS_GHERKIN_ABIERTO-to-ESCENARIOS_GHERKIN_ABIERTO-2" style="stroke:#181818;stroke-width:1;"/><polygon fill="#181818" points="2194.37,443.79,2201.7428,437.2599,2196.444,439.2404,2194.4635,433.9416,2194.37,443.79" style="stroke:#181818;stroke-width:1;"/><text fill="#000000" font-family="sans-serif" font-size="13" lengthAdjust="spacing" textLength="184.7993" x="2086.5" y="330.0669">consultarEscenarioGherkin()</text></g><!--link ESCENARIOS_GHERKIN_ABIERTO to ESCENARIOS_GHERKIN_ABIERTO--><g class="link" data-entity-1="ent0047" data-entity-2="ent0047" data-link-type="dependency" data-source-line="63" id="lnk55"><path d="M2160.8,443.77 C2129.43,385.97 2135.34,304 2178.5,304 C2221.66,304 2230.432,380.6966 2199.062,438.4966" fill="none" id="ESCENARIOS_GHERKIN_ABIERTO-to-ESCENARIOS_GHERKIN_ABIERTO-3" style="stroke:#181818;stroke-width:1;"/><polygon fill="#181818" points="2196.2,443.77,2204.0087,437.7679,2198.585,439.3755,2196.9775,433.9519,2196.2,443.77" style="stroke:#181818;stroke-width:1;"/><text fill="#000000" font-family="sans-serif" font-size="13" lengthAdjust="spacing" textLength="188.2017" x="2084.5" y="295.0669">actualizarEscenarioGherkin()</text></g><!--link ESCENARIOS_GHERKIN_ABIERTO to ESCENARIOS_GHERKIN_ABIERTO--><g class="link" data-entity-1="ent0047" data-entity-2="ent0047" data-link-type="dependency" data-source-line="64" id="lnk56"><path d="M2159.38,443.6 C2116.83,373.37 2123.2,269 2178.5,269 C2233.8,269 2243.2791,368.2384 2200.7291,438.4684" fill="none" id="ESCENARIOS_GHERKIN_ABIERTO-to-ESCENARIOS_GHERKIN_ABIERTO-4" style="stroke:#181818;stroke-width:1;"/><polygon fill="#181818" points="2197.62,443.6,2205.7047,437.9753,2200.2109,439.3236,2198.8625,433.8298,2197.62,443.6" style="stroke:#181818;stroke-width:1;"/><text fill="#000000" font-family="sans-serif" font-size="13" lengthAdjust="spacing" textLength="177.4741" x="2090" y="260.0669">eliminarEscenarioGherkin()</text></g><!--link ESCENARIOS_GHERKIN_ABIERTO to BORRADORES_ABIERTO--><g class="link" data-entity-1="ent0047" data-entity-2="ent0057" data-link-type="dependency" data-source-line="67" id="lnk58"><path d="M2210.91,443.91 C2240.53,421.73 2287.13,390.55 2333,375 C2421.51,344.98 2522.5411,337.0547 2597.3511,335.6247" fill="none" id="ESCENARIOS_GHERKIN_ABIERTO-to-BORRADORES_ABIERTO" style="stroke:#181818;stroke-width:1;"/><polygon fill="#181818" points="2603.35,335.51,2594.2752,331.6827,2598.3509,335.6056,2594.4281,339.6813,2603.35,335.51" style="stroke:#181818;stroke-width:1;"/><text fill="#000000" font-family="sans-serif" font-size="13" lengthAdjust="spacing" textLength="178.4326" x="2341" y="336.0669">crearBorradorCasoPrueba()</text></g><!--link BORRADORES_ABIERTO to ESCENARIOS_GHERKIN_ABIERTO--><g class="link" data-entity-1="ent0057" data-entity-2="ent0047" data-link-type="dependency" data-source-line="68" id="lnk59"><path d="M2635.77,362.14 C2603.86,374.77 2563.75,389.57 2527,400 C2505.25,406.16 2399.792,426.8667 2308.912,444.3467" fill="none" id="BORRADORES_ABIERTO-to-ESCENARIOS_GHERKIN_ABIERTO" style="stroke:#181818;stroke-width:1;"/><polygon fill="#181818" points="2303.02,445.48,2312.6135,447.7081,2307.93,444.5356,2311.1025,439.8521,2303.02,445.48" style="stroke:#181818;stroke-width:1;"/><text fill="#000000" font-family="sans-serif" font-size="13" lengthAdjust="spacing" textLength="150.7505" x="2355" y="396.0669">completarGeneracion()</text></g><!--link BORRADORES_ABIERTO to BORRADORES_ABIERTO--><g class="link" data-entity-1="ent0057" data-entity-2="ent0057" data-link-type="dependency" data-source-line="69" id="lnk60"><path d="M2674.5,311.72 C2667.68,294.22 2675.18,277 2697,277 C2718.82,277 2728.4987,288.6295 2721.6787,306.1295" fill="none" id="BORRADORES_ABIERTO-to-BORRADORES_ABIERTO" style="stroke:#181818;stroke-width:1;"/><polygon fill="#181818" points="2719.5,311.72,2726.495,304.7868,2721.3156,307.0613,2719.041,301.8818,2719.5,311.72" style="stroke:#181818;stroke-width:1;"/><text fill="#000000" font-family="sans-serif" font-size="13" lengthAdjust="spacing" textLength="114.3975" x="2640" y="268.0669">listarBorradores()</text></g><!--link BORRADORES_ABIERTO to BORRADORES_ABIERTO--><g class="link" data-entity-1="ent0057" data-entity-2="ent0057" data-link-type="dependency" data-source-line="70" id="lnk61"><path d="M2662.04,311.7 C2633.91,279.88 2645.57,242 2697,242 C2748.43,242 2764.064,275.3847 2735.934,307.2047" fill="none" id="BORRADORES_ABIERTO-to-BORRADORES_ABIERTO-1" style="stroke:#181818;stroke-width:1;"/><polygon fill="#181818" points="2731.96,311.7,2740.9178,307.6064,2735.2716,307.9539,2734.9241,302.3078,2731.96,311.7" style="stroke:#181818;stroke-width:1;"/><text fill="#000000" font-family="sans-serif" font-size="13" lengthAdjust="spacing" textLength="133.2056" x="2630.5" y="233.0669">guardarResultados()</text></g><!--link BORRADORES_ABIERTO to BORRADOR_ABIERTO--><g class="link" data-entity-1="ent0057" data-entity-2="ent0062" data-link-type="dependency" data-source-line="72" id="lnk63"><path d="M2790.63,343.17 C2864.98,346.82 2971.94,349.15 3065,340 C3088.5,337.68 3107.8151,334.6294 3130.9651,330.0294" fill="none" id="BORRADORES_ABIERTO-to-BORRADOR_ABIERTO" style="stroke:#181818;stroke-width:1;"/><polygon fill="#181818" points="3136.85,328.86,3127.243,326.6907,3131.9459,329.8345,3128.8022,334.5373,3136.85,328.86" style="stroke:#181818;stroke-width:1;"/><text fill="#000000" font-family="sans-serif" font-size="13" lengthAdjust="spacing" textLength="127.5942" x="2902.5" y="336.0669">consultarBorrador()</text></g><!--link BORRADORES_ABIERTO to BORRADOR_ABIERTO--><g class="link" data-entity-1="ent0057" data-entity-2="ent0062" data-link-type="dependency" data-source-line="73" id="lnk64"><path d="M2790.71,360.39 C2865.34,375.74 2972.64,389.94 3065,372 C3102.7,364.67 3137.416,350.8152 3167.526,336.5752" fill="none" id="BORRADORES_ABIERTO-to-BORRADOR_ABIERTO-1" style="stroke:#181818;stroke-width:1;"/><polygon fill="#181818" points="3172.95,334.01,3163.1039,334.2418,3168.43,336.1477,3166.5241,341.4738,3172.95,334.01" style="stroke:#181818;stroke-width:1;"/><text fill="#000000" font-family="sans-serif" font-size="13" lengthAdjust="spacing" textLength="171.2217" x="2880.5" y="368.0669">anadirFeedbackBorrador()</text></g><!--link BORRADORES_ABIERTO to BORRADOR_ABIERTO--><g class="link" data-entity-1="ent0057" data-entity-2="ent0062" data-link-type="dependency" data-source-line="74" id="lnk65"><path d="M2740.77,311.99 C2773.96,294.11 2821.78,271.58 2867,262 C2953.09,243.75 2977.94,249.17 3065,262 C3094.52,266.35 3120.5031,273.2376 3147.5531,282.0176" fill="none" id="BORRADORES_ABIERTO-to-BORRADOR_ABIERTO-2" style="stroke:#181818;stroke-width:1;"/><polygon fill="#181818" points="3153.26,283.87,3145.9346,277.2868,3148.5042,282.3264,3143.4647,284.896,3153.26,283.87" style="stroke:#181818;stroke-width:1;"/><text fill="#000000" font-family="sans-serif" font-size="13" lengthAdjust="spacing" textLength="124.0522" x="2904" y="247.0669">rechazarBorrador()</text></g><!--link BORRADOR_ABIERTO to BORRADORES_ABIERTO--><g class="link" data-entity-1="ent0062" data-entity-2="ent0057" data-link-type="dependency" data-source-line="76" id="lnk67"><path d="M3136.87,309.53 C3065.09,310.43 2959.17,312.79 2867,319 C2842.27,320.66 2821.5366,322.5374 2796.8266,325.1574" fill="none" id="BORRADOR_ABIERTO-to-BORRADORES_ABIERTO" style="stroke:#181818;stroke-width:1;"/><polygon fill="#181818" points="2790.86,325.79,2800.2316,328.8188,2795.8321,325.2628,2799.3881,320.8633,2790.86,325.79" style="stroke:#181818;stroke-width:1;"/><text fill="#000000" font-family="sans-serif" font-size="13" lengthAdjust="spacing" textLength="125.9248" x="2903.5" y="307.0669">completarGestion()</text></g><!--link BORRADOR_ABIERTO to BORRADOR_ABIERTO--><g class="link" data-entity-1="ent0062" data-entity-2="ent0062" data-link-type="dependency" data-source-line="75" id="lnk66"><path d="M3178.69,283.72 C3165.56,266.22 3180,249 3222,249 C3264,249 3282.0409,261.4207 3268.9109,278.9207" fill="none" id="BORRADOR_ABIERTO-to-BORRADOR_ABIERTO" style="stroke:#181818;stroke-width:1;"/><polygon fill="#181818" points="3265.31,283.72,3273.9109,278.9216,3268.3107,279.7205,3267.5118,274.1204,3265.31,283.72" style="stroke:#181818;stroke-width:1;"/><text fill="#000000" font-family="sans-serif" font-size="13" lengthAdjust="spacing" textLength="133.2056" x="3155.5" y="240.0669">guardarResultados()</text></g><!--link BORRADOR_ABIERTO to KIWI_TCMS_ABIERTO--><g class="link" data-entity-1="ent0062" data-entity-2="ent0068" data-link-type="dependency" data-source-line="79" id="lnk69"><path d="M3307.09,309.16 C3402.57,309.35 3551.31,309.638 3645.94,309.828" fill="none" id="BORRADOR_ABIERTO-to-KIWI_TCMS_ABIERTO" style="stroke:#181818;stroke-width:1;"/><polygon fill="#181818" points="3651.94,309.84,3642.948,305.8219,3646.94,309.83,3642.932,313.8219,3651.94,309.84" style="stroke:#181818;stroke-width:1;"/><text fill="#000000" font-family="sans-serif" font-size="13" lengthAdjust="spacing" textLength="241.5664" x="3380" y="306.0669">publicarCasoPruebaApartirBorrador()</text></g><!--link KIWI_TCMS_ABIERTO to BORRADOR_ABIERTO--><g class="link" data-entity-1="ent0068" data-entity-2="ent0062" data-link-type="dependency" data-source-line="81" id="lnk71"><path d="M3651.77,330.5 C3641.8,332.35 3631.7,333.93 3622,335 C3514.65,346.83 3486.63,343.9 3379,335 C3355.6,333.06 3336.3583,330.5068 3313.2083,326.6468" fill="none" id="KIWI_TCMS_ABIERTO-to-BORRADOR_ABIERTO" style="stroke:#181818;stroke-width:1;"/><polygon fill="#181818" points="3307.29,325.66,3315.5096,331.0857,3312.2219,326.4823,3316.8253,323.1947,3307.29,325.66" style="stroke:#181818;stroke-width:1;"/><text fill="#000000" font-family="sans-serif" font-size="13" lengthAdjust="spacing" textLength="149.7983" x="3426" y="331.0669">completarPublicacion()</text></g><!--link KIWI_TCMS_ABIERTO to KIWI_TCMS_ABIERTO--><g class="link" data-entity-1="ent0068" data-entity-2="ent0068" data-link-type="dependency" data-source-line="80" id="lnk70"><path d="M3695.41,284.72 C3683.41,267.22 3696.61,250 3735,250 C3773.39,250 3789.9832,262.2716 3777.9832,279.7716" fill="none" id="KIWI_TCMS_ABIERTO-to-KIWI_TCMS_ABIERTO" style="stroke:#181818;stroke-width:1;"/><polygon fill="#181818" points="3774.59,284.72,3782.9787,279.5596,3777.4176,280.5964,3776.3808,275.0353,3774.59,284.72" style="stroke:#181818;stroke-width:1;"/><text fill="#000000" font-family="sans-serif" font-size="13" lengthAdjust="spacing" textLength="143.2856" x="3663.5" y="241.0669">registrarCasoPrueba()</text></g><?plantuml-src jPXTRzem58Rl-HM-MpjfVs1I9xbfe55NqYMWNKmJSXr3lOQOEVQczTVlED-0ymNqaiJdEU_nEQ-J4BErGaeWoJSl2aLSCgguI2QJ7nz_ea-Vlg3G2nVk8ruvRX3WEtyo-O1kRcuGreebYbD2ORMvCZbOc0UxeUVFtN25RpqtME0GVKOyuPGJ6R8K8g-k1yT9jk6faaGw6Z8J4tcqoY8O8YcJif6mg23_pT9Sl1LrvplBHtU-m0xSB6y1C6KnewRmaihILZbj32ePaNFD_f1w9-prMFQ2nNpBa-EQxWJLMxCxLLViwRk4yKH94MdAvHvjgfEiuXYoZOUIL9Ycxn7nanJ_ODp4IKGgabJ7YiY0hPba88waU_Ypw36Cse7SyrIUZo9KQHBpjqkmolavdxJHH4Qc2LcPaJ16wC0uEFJ3rJBqYwl6dXkMginBJhJir81dSBaoWb-QQ259keC1kuSg2Dv0EPaT2qjCO_rBe8WXajz1LqGhiILmTedhp2A7s3QTnS6L0N75W4msGDj-mVdwGjvgqRLG1twbHgXE1RfQPxAt986UvpAF9NKFtdONCnYyMRwxaCSEi5MQJt_UZk5Hrb5e3p-8hfpIb_Ompep0o9ZQIYC3Iz_KOODsnjACeka1-wrvoXLqVbqUiCKZoIugSByjlT1RmAtfScwQZh_kMQ9oKusUrcJ8t4COKSC0Kg_SVDJEqDg_8RQn70EkLzZ6jPBUV42UZpTJ_JxeUlZVXrzwf9jk2HtKpNOhkIbba9Q3bMOlJBxofCD6RkYuSnnuS6jsxmOFtjnceHfP48Vjp-dmZiWHlkoXdBB7FSZEYdEBdr1k9pLpI0Mz4BCqzOMvjUKk32wzPi4MhhWLyEqJ2LayL7gItVhPDrDm_99LSinRofFKxDbyW5cM3zZZQhWI9iiNpnQILKy-JtLX8yEjpuCUW6r6IW7zwPkJa13unfuo5ZqJ-deIedo3j0JtXTfAxumTUFG-yBySBPp7C9inA_71--wjp986SAUVOqv9OwRmZaZ5cwKTnxNHwly7cYDgZxVsjQZkALUL3-P_?></g></svg>