<?plantuml 1.2026.2?><svg xmlns="http://www.w3.org/2000/svg" xmlns:xlink="http://www.w3.org/1999/xlink" contentStyleType="text/css" data-diagram-type="SEQUENCE" height="504px" preserveAspectRatio="none" style="width:822px;height:504px;background:#FFFFFF;" version="1.1" viewBox="0 0 822 504" width="822px" zoomAndPan="magnify"><defs/><g><g class="participant-lifeline" data-entity-uid="part1" data-qualified-name="QA" id="part1-lifeline"><g><title>Ingeniero QA</title><rect fill="#000000" fill-opacity="0.00000" height="326.4609" width="8" x="49.623" y="83.5938"/><line style="stroke:#181818;stroke-width:0.5;stroke-dasharray:5,5;" x1="53" x2="53" y1="83.5938" y2="410.0547"/></g></g><g class="participant-lifeline" data-entity-uid="part2" data-qualified-name="Vista" id="part2-lifeline"><g><title>UseCaseView</title><rect fill="#000000" fill-opacity="0.00000" height="326.4609" width="8" x="277.9985" y="83.5938"/><line style="stroke:#181818;stroke-width:0.5;stroke-dasharray:5,5;" x1="281.0254" x2="281.0254" y1="83.5938" y2="410.0547"/></g></g><g class="participant-lifeline" data-entity-uid="part3" data-qualified-name="Controller" id="part3-lifeline"><g><title>UseCaseController.create</title><rect fill="#000000" fill-opacity="0.00000" height="326.4609" width="8" x="433.3442" y="83.5938"/><line style="stroke:#181818;stroke-width:0.5;stroke-dasharray:5,5;" x1="436.9507" x2="436.9507" y1="83.5938" y2="410.0547"/></g></g><g class="participant-lifeline" data-entity-uid="part4" data-qualified-name="UseCase" id="part4-lifeline"><g><title>UseCase</title><rect fill="#000000" fill-opacity="0.00000" height="326.4609" width="8" x="623.3291" y="83.5938"/><line style="stroke:#181818;stroke-width:0.5;stroke-dasharray:5,5;" x1="627.1211" x2="627.1211" y1="83.5938" y2="410.0547"/></g></g><g class="participant-lifeline" data-entity-uid="part5" data-qualified-name="Session" id="part5-lifeline"><g><title>Session</title><rect fill="#000000" fill-opacity="0.00000" height="326.4609" width="8" x="696.2451" y="83.5938"/><line style="stroke:#181818;stroke-width:0.5;stroke-dasharray:5,5;" x1="699.5371" x2="699.5371" y1="83.5938" y2="410.0547"/></g></g><g class="participant-lifeline" data-entity-uid="part6" data-qualified-name="BD" id="part6-lifeline"><g><title>MongoDB</title><rect fill="#000000" fill-opacity="0.00000" height="326.4609" width="8" x="776.5439" y="83.5938"/><line style="stroke:#181818;stroke-width:0.5;stroke-dasharray:5,5;" x1="779.9531" x2="779.9531" y1="83.5938" y2="410.0547"/></g></g><g class="participant participant-head" data-entity-uid="part1" data-qualified-name="QA" id="part1-head"><text fill="#000000" font-family="sans-serif" font-size="14" lengthAdjust="spacing" textLength="91.2461" x="5" y="80.292">Ingeniero QA</text><ellipse cx="53.623" cy="15.7969" fill="#E2E2F0" rx="8" ry="8" style="stroke:#181818;stroke-width:0.5;"/><path d="M53.623,23.7969 L53.623,50.7969 M40.623,31.7969 L66.623,31.7969 M53.623,50.7969 L40.623,65.7969 M53.623,50.7969 L66.623,65.7969" fill="none" style="stroke:#181818;stroke-width:0.5;"/></g><g class="participant participant-tail" data-entity-uid="part1" data-qualified-name="QA" id="part1-tail"><text fill="#000000" font-family="sans-serif" font-size="14" lengthAdjust="spacing" textLength="91.2461" x="5" y="422.0498">Ingeniero QA</text><ellipse cx="53.623" cy="433.8516" fill="#E2E2F0" rx="8" ry="8" style="stroke:#181818;stroke-width:0.5;"/><path d="M53.623,441.8516 L53.623,468.8516 M40.623,449.8516 L66.623,449.8516 M53.623,468.8516 L40.623,483.8516 M53.623,468.8516 L66.623,483.8516" fill="none" style="stroke:#181818;stroke-width:0.5;"/></g><g class="participant participant-head" data-entity-uid="part2" data-qualified-name="Vista" id="part2-head"><text fill="#000000" font-family="sans-serif" font-size="14" lengthAdjust="spacing" textLength="93.9463" x="232.0254" y="80.292">UseCaseView</text><path d="M261.4985,39.2969 L261.4985,63.2969 M261.4985,51.2969 L278.4985,51.2969" fill="none" style="stroke:#181818;stroke-width:0.5;"/><ellipse cx="290.4985" cy="51.2969" fill="#E2E2F0" rx="12" ry="12" style="stroke:#181818;stroke-width:0.5;"/></g><g class="participant participant-tail" data-entity-uid="part2" data-qualified-name="Vista" id="part2-tail"><text fill="#000000" font-family="sans-serif" font-size="14" lengthAdjust="spacing" textLength="93.9463" x="232.0254" y="422.0498">UseCaseView</text><path d="M261.4985,429.3516 L261.4985,453.3516 M261.4985,441.3516 L278.4985,441.3516" fill="none" style="stroke:#181818;stroke-width:0.5;"/><ellipse cx="290.4985" cy="441.3516" fill="#E2E2F0" rx="12" ry="12" style="stroke:#181818;stroke-width:0.5;"/></g><g class="participant participant-head" data-entity-uid="part3" data-qualified-name="Controller" id="part3-head"><text fill="#000000" font-family="sans-serif" font-size="14" lengthAdjust="spacing" textLength="178.7871" x="344.9507" y="80.292">UseCaseController.create</text><ellipse cx="437.3442" cy="51.2969" fill="#E2E2F0" rx="12" ry="12" style="stroke:#181818;stroke-width:0.5;"/><polygon fill="#181818" points="433.3442,39.2969,439.3442,34.2969,437.3442,39.2969,439.3442,44.2969,433.3442,39.2969" style="stroke:#181818;stroke-width:1;"/></g><g class="participant participant-tail" data-entity-uid="part3" data-qualified-name="Controller" id="part3-tail"><text fill="#000000" font-family="sans-serif" font-size="14" lengthAdjust="spacing" textLength="178.7871" x="344.9507" y="422.0498">UseCaseController.create</text><ellipse cx="437.3442" cy="441.3516" fill="#E2E2F0" rx="12" ry="12" style="stroke:#181818;stroke-width:0.5;"/><polygon fill="#181818" points="433.3442,429.3516,439.3442,424.3516,437.3442,429.3516,439.3442,434.3516,433.3442,429.3516" style="stroke:#181818;stroke-width:1;"/></g><g class="participant participant-head" data-entity-uid="part4" data-qualified-name="UseCase" id="part4-head"><text fill="#000000" font-family="sans-serif" font-size="14" lengthAdjust="spacing" textLength="60.416" x="594.1211" y="80.292">UseCase</text><ellipse cx="627.3291" cy="51.2969" fill="#E2E2F0" rx="12" ry="12" style="stroke:#181818;stroke-width:0.5;"/><line style="stroke:#181818;stroke-width:0.5;" x1="615.3291" x2="639.3291" y1="65.2969" y2="65.2969"/></g><g class="participant participant-tail" data-entity-uid="part4" data-qualified-name="UseCase" id="part4-tail"><text fill="#000000" font-family="sans-serif" font-size="14" lengthAdjust="spacing" textLength="60.416" x="594.1211" y="422.0498">UseCase</text><ellipse cx="627.3291" cy="441.3516" fill="#E2E2F0" rx="12" ry="12" style="stroke:#181818;stroke-width:0.5;"/><line style="stroke:#181818;stroke-width:0.5;" x1="615.3291" x2="639.3291" y1="455.3516" y2="455.3516"/></g><g class="participant participant-head" data-entity-uid="part5" data-qualified-name="Session" id="part5-head"><text fill="#000000" font-family="sans-serif" font-size="14" lengthAdjust="spacing" textLength="53.416" x="670.5371" y="80.292">Session</text><ellipse cx="700.2451" cy="51.2969" fill="#E2E2F0" rx="12" ry="12" style="stroke:#181818;stroke-width:0.5;"/><line style="stroke:#181818;stroke-width:0.5;" x1="688.2451" x2="712.2451" y1="65.2969" y2="65.2969"/></g><g class="participant participant-tail" data-entity-uid="part5" data-qualified-name="Session" id="part5-tail"><text fill="#000000" font-family="sans-serif" font-size="14" lengthAdjust="spacing" textLength="53.416" x="670.5371" y="422.0498">Session</text><ellipse cx="700.2451" cy="441.3516" fill="#E2E2F0" rx="12" ry="12" style="stroke:#181818;stroke-width:0.5;"/><line style="stroke:#181818;stroke-width:0.5;" x1="688.2451" x2="712.2451" y1="455.3516" y2="455.3516"/></g><g class="participant participant-head" data-entity-uid="part6" data-qualified-name="BD" id="part6-head"><text fill="#000000" font-family="sans-serif" font-size="14" lengthAdjust="spacing" textLength="67.3545" x="743.8667" y="63.9951">MongoDB</text><text fill="#000000" font-family="sans-serif" font-size="14" lengthAdjust="spacing" textLength="75.1816" x="739.9531" y="80.292">(usecases)</text><path d="M762.5439,15 C762.5439,5 780.5439,5 780.5439,5 C780.5439,5 798.5439,5 798.5439,15 L798.5439,41 C798.5439,51 780.5439,51 780.5439,51 C780.5439,51 762.5439,51 762.5439,41 L762.5439,15" fill="#E2E2F0" style="stroke:#181818;stroke-width:0.5;"/><path d="M762.5439,15 C762.5439,25 780.5439,25 780.5439,25 C780.5439,25 798.5439,25 798.5439,15" fill="none" style="stroke:#181818;stroke-width:0.5;"/></g><g class="participant participant-tail" data-entity-uid="part6" data-qualified-name="BD" id="part6-tail"><text fill="#000000" font-family="sans-serif" font-size="14" lengthAdjust="spacing" textLength="67.3545" x="743.8667" y="422.0498">MongoDB</text><text fill="#000000" font-family="sans-serif" font-size="14" lengthAdjust="spacing" textLength="75.1816" x="739.9531" y="438.3467">(usecases)</text><path d="M762.5439,451.6484 C762.5439,441.6484 780.5439,441.6484 780.5439,441.6484 C780.5439,441.6484 798.5439,441.6484 798.5439,451.6484 L798.5439,477.6484 C798.5439,487.6484 780.5439,487.6484 780.5439,487.6484 C780.5439,487.6484 762.5439,487.6484 762.5439,477.6484 L762.5439,451.6484" fill="#E2E2F0" style="stroke:#181818;stroke-width:0.5;"/><path d="M762.5439,451.6484 C762.5439,461.6484 780.5439,461.6484 780.5439,461.6484 C780.5439,461.6484 798.5439,461.6484 798.5439,451.6484" fill="none" style="stroke:#181818;stroke-width:0.5;"/></g><g class="message" data-entity-1="part1" data-entity-2="part2" id="msg1"><polygon fill="#181818" points="269.9985,125.8594,279.9985,129.8594,269.9985,133.8594,273.9985,129.8594" style="stroke:#181818;stroke-width:1;"/><line style="stroke:#181818;stroke-width:1;" x1="53.623" x2="275.9985" y1="129.8594" y2="129.8594"/><text fill="#000000" font-family="sans-serif" font-size="13" lengthAdjust="spacing" textLength="204.3755" x="60.623" y="109.6606">Introducir nombre, descripci&#243;n,</text><text fill="#000000" font-family="sans-serif" font-size="13" lengthAdjust="spacing" textLength="184.1963" x="60.623" y="124.7935">actores, condiciones y flujos</text></g><g class="message" data-entity-1="part2" data-entity-2="part3" id="msg2"><polygon fill="#181818" points="425.3442,154.9922,435.3442,158.9922,425.3442,162.9922,429.3442,158.9922" style="stroke:#181818;stroke-width:1;"/><line style="stroke:#181818;stroke-width:1;" x1="281.9985" x2="431.3442" y1="158.9922" y2="158.9922"/><text fill="#000000" font-family="sans-serif" font-size="13" lengthAdjust="spacing" textLength="131.3457" x="288.9985" y="153.9263">POST /api/use-cases</text></g><g class="message" data-entity-1="part3" data-entity-2="part5" id="msg3"><polygon fill="#181818" points="688.2451,184.125,698.2451,188.125,688.2451,192.125,692.2451,188.125" style="stroke:#181818;stroke-width:1;"/><line style="stroke:#181818;stroke-width:1;" x1="437.3442" x2="694.2451" y1="188.125" y2="188.125"/><text fill="#000000" font-family="sans-serif" font-size="13" lengthAdjust="spacing" textLength="142.7461" x="444.3442" y="183.0591">validar sesi&#243;n manual</text></g><g class="message" data-entity-1="part5" data-entity-2="part3" id="msg4"><polygon fill="#181818" points="448.3442,213.2578,438.3442,217.2578,448.3442,221.2578,444.3442,217.2578" style="stroke:#181818;stroke-width:1;"/><line style="stroke:#181818;stroke-width:1;stroke-dasharray:2,2;" x1="442.3442" x2="699.2451" y1="217.2578" y2="217.2578"/><text fill="#000000" font-family="sans-serif" font-size="13" lengthAdjust="spacing" textLength="84.5825" x="454.3442" y="212.1919">sesi&#243;n v&#225;lida</text></g><g class="message" data-entity-1="part3" data-entity-2="part4" id="msg5"><polygon fill="#181818" points="615.3291,242.3906,625.3291,246.3906,615.3291,250.3906,619.3291,246.3906" style="stroke:#181818;stroke-width:1;"/><line style="stroke:#181818;stroke-width:1;" x1="437.3442" x2="621.3291" y1="246.3906" y2="246.3906"/><text fill="#000000" font-family="sans-serif" font-size="13" lengthAdjust="spacing" textLength="165.9849" x="444.3442" y="241.3247">validar datos y crear ucId</text></g><g class="message" data-entity-1="part4" data-entity-2="part3" id="msg6"><polygon fill="#181818" points="448.3442,271.5234,438.3442,275.5234,448.3442,279.5234,444.3442,275.5234" style="stroke:#181818;stroke-width:1;"/><line style="stroke:#181818;stroke-width:1;stroke-dasharray:2,2;" x1="442.3442" x2="626.3291" y1="275.5234" y2="275.5234"/><text fill="#000000" font-family="sans-serif" font-size="13" lengthAdjust="spacing" textLength="120.542" x="454.3442" y="270.4575">caso de uso v&#225;lido</text></g><g class="message" data-entity-1="part3" data-entity-2="part6" id="msg7"><polygon fill="#181818" points="768.5439,300.6563,778.5439,304.6563,768.5439,308.6563,772.5439,304.6563" style="stroke:#181818;stroke-width:1;"/><line style="stroke:#181818;stroke-width:1;" x1="437.3442" x2="774.5439" y1="304.6563" y2="304.6563"/><text fill="#000000" font-family="sans-serif" font-size="13" lengthAdjust="spacing" textLength="111.9282" x="444.3442" y="299.5903">UseCase.create()</text></g><g class="message" data-entity-1="part6" data-entity-2="part3" id="msg8"><polygon fill="#181818" points="448.3442,329.7891,438.3442,333.7891,448.3442,337.7891,444.3442,333.7891" style="stroke:#181818;stroke-width:1;"/><line style="stroke:#181818;stroke-width:1;stroke-dasharray:2,2;" x1="442.3442" x2="779.5439" y1="333.7891" y2="333.7891"/><text fill="#000000" font-family="sans-serif" font-size="13" lengthAdjust="spacing" textLength="126.1152" x="454.3442" y="328.7231">caso de uso creado</text></g><g class="message" data-entity-1="part3" data-entity-2="part2" id="msg9"><polygon fill="#181818" points="292.9985,358.9219,282.9985,362.9219,292.9985,366.9219,288.9985,362.9219" style="stroke:#181818;stroke-width:1;"/><line style="stroke:#181818;stroke-width:1;stroke-dasharray:2,2;" x1="286.9985" x2="436.3442" y1="362.9219" y2="362.9219"/><text fill="#000000" font-family="sans-serif" font-size="13" lengthAdjust="spacing" textLength="87.3311" x="298.9985" y="357.856">respuesta OK</text></g><g class="message" data-entity-1="part2" data-entity-2="part1" id="msg10"><polygon fill="#181818" points="64.623,388.0547,54.623,392.0547,64.623,396.0547,60.623,392.0547" style="stroke:#181818;stroke-width:1;"/><line style="stroke:#181818;stroke-width:1;stroke-dasharray:2,2;" x1="58.623" x2="280.9985" y1="392.0547" y2="392.0547"/><text fill="#000000" font-family="sans-serif" font-size="13" lengthAdjust="spacing" textLength="149.9761" x="70.623" y="386.9888">Caso de uso registrado</text></g><?plantuml-src VP5BRW8n38RtEOKrAv2Wx5bKuh4PLHL5jApOc8n1gOOOvK75SNg67e6BrPa7ZAPILt7y__dy2Eh03hBS7iaQSWphMGRevL1xZhP0TuNimzC2FMqDVLNYrlY0IhCDZikxlAZl9RadxGW3LTv7Lf4D9ZnmbTp4Tsr3tXksbTR4gi20Up51zihsoClvpWwY9oqfFwoSywLIwncCd-lMO0fvgbf4RHnOFkqTZQ0WhvqvQtFxiQETnJGv-H7878NHKeWyNE5Gna_sgkO8yD6_KDzMctUOuDbCfFwuQa1r369lUXRl1KiZwmFnf8fmGXknLArXt6UtliljEptiSPizTRYo5KuDfrqxY3elL6lwmvPEMUQ7A4VDvnv_lXHRyxxvli5GIVPVLZBsK9q_aEsU8wLuzT8kL6Jvg2aiEXH7Hn6Ta7u1?></g></svg>